<?xml version="1.0" encoding="utf-8"?>
<!-- Generator: Adobe Illustrator 15.1.0, SVG Export Plug-In . SVG Version: 6.00 Build 0)  -->
<!DOCTYPE svg PUBLIC "-//W3C//DTD SVG 1.1//EN" "http://www.w3.org/Graphics/SVG/1.1/DTD/svg11.dtd">
<svg version="1.1" id="Layer_1" xmlns="http://www.w3.org/2000/svg" xmlns:xlink="http://www.w3.org/1999/xlink" x="0px" y="0px"
	 width="841.89px" height="595.281px" viewBox="0 0 841.89 595.281" enable-background="new 0 0 841.89 595.281"
	 xml:space="preserve">
<g>
	<g>
		<g>
			<g>
				<g>
					<g>
						<defs>
							<rect id="SVGID_1_" x="704.931" y="241.548" width="94.285" height="311.468"/>
						</defs>
						<clipPath id="SVGID_2_">
							<use xlink:href="#SVGID_1_"  overflow="visible"/>
						</clipPath>
						<g clip-path="url(#SVGID_2_)">
							<text transform="matrix(0.999 0 0 1 716.9761 286.6357)" fill="#010202" font-family="'Calibri'" font-size="7.8654">3</text>
							<text transform="matrix(0.999 0 0 1 720.644 286.6357)" fill="#010202" font-family="'Calibri'" font-size="7.8654">0</text>
						</g>
					</g>
				</g>
			</g>
		</g>
		<g>
			<g>
				<g>
					<g>
						<defs>
							<rect id="SVGID_3_" x="704.931" y="241.548" width="94.285" height="311.468"/>
						</defs>
						<clipPath id="SVGID_4_">
							<use xlink:href="#SVGID_3_"  overflow="visible"/>
						</clipPath>
						<g clip-path="url(#SVGID_4_)">
							<text transform="matrix(0.999 0 0 1 748.4126 286.6357)" fill="#010202" font-family="'Calibri'" font-size="7.8654">2</text>
							<text transform="matrix(0.999 0 0 1 752.0796 286.6357)" fill="#010202" font-family="'Calibri'" font-size="7.8654">9</text>
						</g>
					</g>
				</g>
			</g>
		</g>
		<g>
			<g>
				<g>
					<g>
						<defs>
							<rect id="SVGID_5_" x="704.931" y="241.548" width="94.285" height="311.468"/>
						</defs>
						<clipPath id="SVGID_6_">
							<use xlink:href="#SVGID_5_"  overflow="visible"/>
						</clipPath>
						<g clip-path="url(#SVGID_6_)">
							<text transform="matrix(0.999 0 0 1 779.8354 286.6357)" fill="#010202" font-family="'Calibri'" font-size="7.8654">2</text>
							<text transform="matrix(0.999 0 0 1 783.5054 286.6357)" fill="#010202" font-family="'Calibri'" font-size="7.8654">8</text>
						</g>
					</g>
				</g>
			</g>
		</g>
		<g>
			<g>
				<g>
					<g>
						<defs>
							<rect id="SVGID_7_" x="704.931" y="241.548" width="94.285" height="311.468"/>
						</defs>
						<clipPath id="SVGID_8_">
							<use xlink:href="#SVGID_7_"  overflow="visible"/>
						</clipPath>
						<g clip-path="url(#SVGID_8_)">
							<text transform="matrix(0.999 0 0 1 716.9761 314.9531)" fill="#010202" font-family="'Calibri'" font-size="7.8654">2</text>
							<text transform="matrix(0.999 0 0 1 720.644 314.9531)" fill="#010202" font-family="'Calibri'" font-size="7.8654">7</text>
						</g>
					</g>
				</g>
			</g>
		</g>
		<g>
			<g>
				<g>
					<g>
						<defs>
							<rect id="SVGID_9_" x="704.931" y="241.548" width="94.285" height="311.468"/>
						</defs>
						<clipPath id="SVGID_10_">
							<use xlink:href="#SVGID_9_"  overflow="visible"/>
						</clipPath>
						<g clip-path="url(#SVGID_10_)">
							<text transform="matrix(0.999 0 0 1 748.4126 314.9531)" fill="#010202" font-family="'Calibri'" font-size="7.8654">2</text>
							<text transform="matrix(0.999 0 0 1 752.0796 314.9531)" fill="#010202" font-family="'Calibri'" font-size="7.8654">6</text>
						</g>
					</g>
				</g>
			</g>
		</g>
		<g>
			<g>
				<g>
					<g>
						<defs>
							<rect id="SVGID_11_" x="704.931" y="241.548" width="94.285" height="311.468"/>
						</defs>
						<clipPath id="SVGID_12_">
							<use xlink:href="#SVGID_11_"  overflow="visible"/>
						</clipPath>
						<g clip-path="url(#SVGID_12_)">
							<text transform="matrix(0.999 0 0 1 779.8354 314.9531)" fill="#010202" font-family="'Calibri'" font-size="7.8654">2</text>
							<text transform="matrix(0.999 0 0 1 783.5054 314.9531)" fill="#010202" font-family="'Calibri'" font-size="7.8654">5</text>
						</g>
					</g>
				</g>
			</g>
		</g>
		<g>
			<g>
				<g>
					<g>
						<defs>
							<rect id="SVGID_13_" x="704.931" y="241.548" width="94.285" height="311.468"/>
						</defs>
						<clipPath id="SVGID_14_">
							<use xlink:href="#SVGID_13_"  overflow="visible"/>
						</clipPath>
						<g clip-path="url(#SVGID_14_)">
							<text transform="matrix(0.999 0 0 1 716.9761 343.2656)" fill="#010202" font-family="'Calibri'" font-size="7.8654">2</text>
							<text transform="matrix(0.999 0 0 1 720.644 343.2656)" fill="#010202" font-family="'Calibri'" font-size="7.8654">4</text>
						</g>
					</g>
				</g>
			</g>
		</g>
		<g>
			<g>
				<g>
					<g>
						<defs>
							<rect id="SVGID_15_" x="704.931" y="241.548" width="94.285" height="311.468"/>
						</defs>
						<clipPath id="SVGID_16_">
							<use xlink:href="#SVGID_15_"  overflow="visible"/>
						</clipPath>
						<g clip-path="url(#SVGID_16_)">
							<text transform="matrix(0.999 0 0 1 748.4126 343.2656)" fill="#010202" font-family="'Calibri'" font-size="7.8654">2</text>
							<text transform="matrix(0.999 0 0 1 752.0796 343.2656)" fill="#010202" font-family="'Calibri'" font-size="7.8654">3</text>
						</g>
					</g>
				</g>
			</g>
		</g>
		<g>
			<g>
				<g>
					<g>
						<defs>
							<rect id="SVGID_17_" x="704.931" y="241.548" width="94.285" height="311.468"/>
						</defs>
						<clipPath id="SVGID_18_">
							<use xlink:href="#SVGID_17_"  overflow="visible"/>
						</clipPath>
						<g clip-path="url(#SVGID_18_)">
							<text transform="matrix(0.999 0 0 1 779.8354 343.2656)" fill="#010202" font-family="'Calibri'" font-size="7.8654">2</text>
							<text transform="matrix(0.999 0 0 1 783.5054 343.2656)" fill="#010202" font-family="'Calibri'" font-size="7.8654">2</text>
						</g>
					</g>
				</g>
			</g>
		</g>
		<g>
			<g>
				<g>
					<g>
						<defs>
							<rect id="SVGID_19_" x="704.931" y="241.548" width="94.285" height="311.468"/>
						</defs>
						<clipPath id="SVGID_20_">
							<use xlink:href="#SVGID_19_"  overflow="visible"/>
						</clipPath>
						<g clip-path="url(#SVGID_20_)">
							<text transform="matrix(0.999 0 0 1 716.9761 371.5859)" fill="#010202" font-family="'Calibri'" font-size="7.8654">2</text>
							<text transform="matrix(0.999 0 0 1 720.644 371.5859)" fill="#010202" font-family="'Calibri'" font-size="7.8654">1</text>
						</g>
					</g>
				</g>
			</g>
		</g>
		<g>
			<g>
				<g>
					<g>
						<defs>
							<rect id="SVGID_21_" x="704.931" y="241.548" width="94.285" height="311.468"/>
						</defs>
						<clipPath id="SVGID_22_">
							<use xlink:href="#SVGID_21_"  overflow="visible"/>
						</clipPath>
						<g clip-path="url(#SVGID_22_)">
							<text transform="matrix(0.999 0 0 1 748.4126 371.5859)" fill="#010202" font-family="'Calibri'" font-size="7.8654">2</text>
							<text transform="matrix(0.999 0 0 1 752.0796 371.5859)" fill="#010202" font-family="'Calibri'" font-size="7.8654">0</text>
						</g>
					</g>
				</g>
			</g>
		</g>
		<g>
			<g>
				<g>
					<g>
						<defs>
							<rect id="SVGID_23_" x="704.931" y="241.548" width="94.285" height="311.468"/>
						</defs>
						<clipPath id="SVGID_24_">
							<use xlink:href="#SVGID_23_"  overflow="visible"/>
						</clipPath>
						<g clip-path="url(#SVGID_24_)">
							<text transform="matrix(0.999 0 0 1 779.8354 371.5859)" fill="#010202" font-family="'Calibri'" font-size="7.8654">1</text>
							<text transform="matrix(0.999 0 0 1 783.5054 371.5859)" fill="#010202" font-family="'Calibri'" font-size="7.8654">9</text>
						</g>
					</g>
				</g>
			</g>
		</g>
		<g>
			<g>
				<g>
					<g>
						<defs>
							<rect id="SVGID_25_" x="704.931" y="241.548" width="94.285" height="311.468"/>
						</defs>
						<clipPath id="SVGID_26_">
							<use xlink:href="#SVGID_25_"  overflow="visible"/>
						</clipPath>
						<g clip-path="url(#SVGID_26_)">
							<text transform="matrix(0.999 0 0 1 716.9761 399.8945)" fill="#010202" font-family="'Calibri'" font-size="7.8654">1</text>
							<text transform="matrix(0.999 0 0 1 720.644 399.8945)" fill="#010202" font-family="'Calibri'" font-size="7.8654">8</text>
						</g>
					</g>
				</g>
			</g>
		</g>
		<g>
			<g>
				<g>
					<g>
						<defs>
							<rect id="SVGID_27_" x="704.931" y="241.548" width="94.285" height="311.468"/>
						</defs>
						<clipPath id="SVGID_28_">
							<use xlink:href="#SVGID_27_"  overflow="visible"/>
						</clipPath>
						<g clip-path="url(#SVGID_28_)">
							<text transform="matrix(0.999 0 0 1 748.4126 399.8945)" fill="#010202" font-family="'Calibri'" font-size="7.8654">1</text>
							<text transform="matrix(0.999 0 0 1 752.0796 399.8945)" fill="#010202" font-family="'Calibri'" font-size="7.8654">7</text>
						</g>
					</g>
				</g>
			</g>
		</g>
		<g>
			<g>
				<g>
					<g>
						<defs>
							<rect id="SVGID_29_" x="704.931" y="241.548" width="94.285" height="311.468"/>
						</defs>
						<clipPath id="SVGID_30_">
							<use xlink:href="#SVGID_29_"  overflow="visible"/>
						</clipPath>
						<g clip-path="url(#SVGID_30_)">
							<text transform="matrix(0.999 0 0 1 779.8354 399.8945)" fill="#010202" font-family="'Calibri'" font-size="7.8654">1</text>
							<text transform="matrix(0.999 0 0 1 783.5054 399.8945)" fill="#010202" font-family="'Calibri'" font-size="7.8654">6</text>
						</g>
					</g>
				</g>
			</g>
		</g>
		<g>
			<g>
				<g>
					<g>
						<defs>
							<rect id="SVGID_31_" x="704.931" y="241.548" width="94.285" height="311.468"/>
						</defs>
						<clipPath id="SVGID_32_">
							<use xlink:href="#SVGID_31_"  overflow="visible"/>
						</clipPath>
						<g clip-path="url(#SVGID_32_)">
							<text transform="matrix(0.999 0 0 1 716.9761 428.2119)" fill="#010202" font-family="'Calibri'" font-size="7.8654">1</text>
							<text transform="matrix(0.999 0 0 1 720.644 428.2119)" fill="#010202" font-family="'Calibri'" font-size="7.8654">5</text>
						</g>
					</g>
				</g>
			</g>
		</g>
		<g>
			<g>
				<g>
					<g>
						<defs>
							<rect id="SVGID_33_" x="704.931" y="241.548" width="94.285" height="311.468"/>
						</defs>
						<clipPath id="SVGID_34_">
							<use xlink:href="#SVGID_33_"  overflow="visible"/>
						</clipPath>
						<g clip-path="url(#SVGID_34_)">
							<text transform="matrix(0.999 0 0 1 748.4126 428.2119)" fill="#010202" font-family="'Calibri'" font-size="7.8654">1</text>
							<text transform="matrix(0.999 0 0 1 752.0796 428.2119)" fill="#010202" font-family="'Calibri'" font-size="7.8654">4</text>
						</g>
					</g>
				</g>
			</g>
		</g>
		<g>
			<g>
				<g>
					<g>
						<defs>
							<rect id="SVGID_35_" x="704.931" y="241.548" width="94.285" height="311.468"/>
						</defs>
						<clipPath id="SVGID_36_">
							<use xlink:href="#SVGID_35_"  overflow="visible"/>
						</clipPath>
						<g clip-path="url(#SVGID_36_)">
							<text transform="matrix(0.999 0 0 1 779.8354 428.2119)" fill="#010202" font-family="'Calibri'" font-size="7.8654">1</text>
							<text transform="matrix(0.999 0 0 1 783.5054 428.2119)" fill="#010202" font-family="'Calibri'" font-size="7.8654">3</text>
						</g>
					</g>
				</g>
			</g>
		</g>
		<g>
			<g>
				<g>
					<g>
						<defs>
							<rect id="SVGID_37_" x="704.931" y="241.548" width="94.285" height="311.468"/>
						</defs>
						<clipPath id="SVGID_38_">
							<use xlink:href="#SVGID_37_"  overflow="visible"/>
						</clipPath>
						<g clip-path="url(#SVGID_38_)">
							<text transform="matrix(0.999 0 0 1 716.9761 456.5273)" fill="#010202" font-family="'Calibri'" font-size="7.8654">1</text>
							<text transform="matrix(0.999 0 0 1 720.644 456.5273)" fill="#010202" font-family="'Calibri'" font-size="7.8654">2</text>
						</g>
					</g>
				</g>
			</g>
		</g>
		<g>
			<g>
				<g>
					<g>
						<defs>
							<rect id="SVGID_39_" x="704.931" y="241.548" width="94.285" height="311.468"/>
						</defs>
						<clipPath id="SVGID_40_">
							<use xlink:href="#SVGID_39_"  overflow="visible"/>
						</clipPath>
						<g clip-path="url(#SVGID_40_)">
							<text transform="matrix(0.999 0 0 1 748.4126 456.5273)" fill="#010202" font-family="'Calibri'" font-size="7.8654">1</text>
							<text transform="matrix(0.999 0 0 1 752.0796 456.5273)" fill="#010202" font-family="'Calibri'" font-size="7.8654">1</text>
						</g>
					</g>
				</g>
			</g>
		</g>
		<g>
			<g>
				<g>
					<g>
						<defs>
							<rect id="SVGID_41_" x="704.931" y="241.548" width="94.285" height="311.468"/>
						</defs>
						<clipPath id="SVGID_42_">
							<use xlink:href="#SVGID_41_"  overflow="visible"/>
						</clipPath>
						<g clip-path="url(#SVGID_42_)">
							<text transform="matrix(0.999 0 0 1 779.8354 456.5273)" fill="#010202" font-family="'Calibri'" font-size="7.8654">1</text>
							<text transform="matrix(0.999 0 0 1 783.5054 456.5273)" fill="#010202" font-family="'Calibri'" font-size="7.8654">0</text>
						</g>
					</g>
				</g>
			</g>
		</g>
		<g>
			<g>
				<g>
					<g>
						<defs>
							<rect id="SVGID_43_" x="704.931" y="241.548" width="94.285" height="311.468"/>
						</defs>
						<clipPath id="SVGID_44_">
							<use xlink:href="#SVGID_43_"  overflow="visible"/>
						</clipPath>
						<g clip-path="url(#SVGID_44_)">
							<text transform="matrix(0.999 0 0 1 718.5542 484.8447)" fill="#010202" font-family="'Calibri'" font-size="7.8654">9</text>
						</g>
					</g>
				</g>
			</g>
		</g>
		<g>
			<g>
				<g>
					<g>
						<defs>
							<rect id="SVGID_45_" x="704.931" y="241.548" width="94.285" height="311.468"/>
						</defs>
						<clipPath id="SVGID_46_">
							<use xlink:href="#SVGID_45_"  overflow="visible"/>
						</clipPath>
						<g clip-path="url(#SVGID_46_)">
							<text transform="matrix(0.999 0 0 1 749.978 484.8447)" fill="#010202" font-family="'Calibri'" font-size="7.8654">8</text>
						</g>
					</g>
				</g>
			</g>
		</g>
		<g>
			<g>
				<g>
					<g>
						<defs>
							<rect id="SVGID_47_" x="704.931" y="241.548" width="94.285" height="311.468"/>
						</defs>
						<clipPath id="SVGID_48_">
							<use xlink:href="#SVGID_47_"  overflow="visible"/>
						</clipPath>
						<g clip-path="url(#SVGID_48_)">
							<text transform="matrix(0.999 0 0 1 781.4077 484.8447)" fill="#010202" font-family="'Calibri'" font-size="7.8654">7</text>
						</g>
					</g>
				</g>
			</g>
		</g>
		<g>
			<g>
				<g>
					<g>
						<defs>
							<rect id="SVGID_49_" x="704.931" y="241.548" width="94.285" height="311.468"/>
						</defs>
						<clipPath id="SVGID_50_">
							<use xlink:href="#SVGID_49_"  overflow="visible"/>
						</clipPath>
						<g clip-path="url(#SVGID_50_)">
							<text transform="matrix(0.999 0 0 1 718.5542 513.1572)" fill="#010202" font-family="'Calibri'" font-size="7.8654">6</text>
						</g>
					</g>
				</g>
			</g>
		</g>
		<g>
			<g>
				<g>
					<g>
						<defs>
							<rect id="SVGID_51_" x="704.931" y="241.548" width="94.285" height="311.468"/>
						</defs>
						<clipPath id="SVGID_52_">
							<use xlink:href="#SVGID_51_"  overflow="visible"/>
						</clipPath>
						<g clip-path="url(#SVGID_52_)">
							<text transform="matrix(0.999 0 0 1 749.978 513.1572)" fill="#010202" font-family="'Calibri'" font-size="7.8654">5</text>
						</g>
					</g>
				</g>
			</g>
		</g>
		<g>
			<g>
				<g>
					<g>
						<defs>
							<rect id="SVGID_53_" x="704.931" y="241.548" width="94.285" height="311.468"/>
						</defs>
						<clipPath id="SVGID_54_">
							<use xlink:href="#SVGID_53_"  overflow="visible"/>
						</clipPath>
						<g clip-path="url(#SVGID_54_)">
							<text transform="matrix(0.999 0 0 1 781.4077 513.1572)" fill="#010202" font-family="'Calibri'" font-size="7.8654">4</text>
						</g>
					</g>
				</g>
			</g>
		</g>
		<g>
			<g>
				<g>
					<g>
						<defs>
							<rect id="SVGID_55_" x="704.931" y="241.548" width="94.285" height="311.468"/>
						</defs>
						<clipPath id="SVGID_56_">
							<use xlink:href="#SVGID_55_"  overflow="visible"/>
						</clipPath>
						<g clip-path="url(#SVGID_56_)">
							<text transform="matrix(0.999 0 0 1 718.5542 541.4746)" fill="#010202" font-family="'Calibri'" font-size="7.8654">3</text>
						</g>
					</g>
				</g>
			</g>
		</g>
		<g>
			<g>
				<g>
					<g>
						<defs>
							<rect id="SVGID_57_" x="704.931" y="241.548" width="94.285" height="311.468"/>
						</defs>
						<clipPath id="SVGID_58_">
							<use xlink:href="#SVGID_57_"  overflow="visible"/>
						</clipPath>
						<g clip-path="url(#SVGID_58_)">
							<text transform="matrix(0.999 0 0 1 749.978 541.4746)" fill="#010202" font-family="'Calibri'" font-size="7.8654">2</text>
						</g>
					</g>
				</g>
			</g>
		</g>
		<g>
			<g>
				<g>
					<g>
						<defs>
							<rect id="SVGID_59_" x="704.931" y="241.548" width="94.285" height="311.468"/>
						</defs>
						<clipPath id="SVGID_60_">
							<use xlink:href="#SVGID_59_"  overflow="visible"/>
						</clipPath>
						<g clip-path="url(#SVGID_60_)">
							<text transform="matrix(0.999 0 0 1 781.4077 541.4746)" fill="#010202" font-family="'Calibri'" font-size="7.8654">1</text>
						</g>
					</g>
				</g>
			</g>
		</g>
	</g>
</g>
<text transform="matrix(1.0518 0 0 1 737.8374 74.7695)" font-family="'MyriadPro-Regular'" font-size="11.4086">Bin</text>
<g>
	<g id="XMLID_1_">
		<g>
			<polygon fill="#ACC2DC" points="354.137,445.209 354.137,490.17 353.967,490.17 309.187,490.17 309.187,445.209 353.967,445.209 
							"/>
			<polygon fill="#ACC2DC" points="354.137,490.17 354.137,535.119 353.967,535.119 309.187,535.119 309.187,490.17 353.967,490.17 
							"/>
			<polygon fill="#ACC2DC" points="354.137,535.119 354.137,579.938 353.967,580.08 309.187,580.08 309.187,579.938 
				309.187,535.119 353.967,535.119 			"/>
			<polygon fill="#ACC2DC" points="309.187,579.938 309.187,580.08 264.227,580.08 264.227,579.938 264.227,535.119 
				309.187,535.119 			"/>
			<rect x="264.227" y="490.17" fill="#ACC2DC" width="44.96" height="44.949"/>
			<polygon fill="#9DB69D" points="264.227,579.938 264.227,580.08 219.267,580.08 219.267,579.938 219.267,535.119 
				264.227,535.119 			"/>
			<rect x="174.307" y="490.17" fill="#9DB69D" width="44.96" height="44.949"/>
			<polygon fill="#9DB69D" points="219.267,579.938 219.267,580.08 174.307,580.08 174.307,579.938 174.307,535.119 
				219.267,535.119 			"/>
			<polygon fill="#9DB69D" points="174.307,579.938 174.307,580.08 129.347,580.08 129.347,579.938 129.347,535.119 
				174.307,535.119 			"/>
			<rect x="129.347" y="490.17" fill="#9DB69D" width="44.96" height="44.949"/>
			<rect x="129.347" y="445.209" fill="#FED9A0" width="44.96" height="44.961"/>
			<rect x="129.347" y="355.289" fill="#FED9A0" width="44.96" height="44.961"/>
			<rect x="129.347" y="400.25" fill="#FED9A0" width="44.96" height="44.959"/>
			<rect x="174.307" y="400.25" fill="#FED9A0" width="44.96" height="44.959"/>
			<rect x="174.307" y="355.289" fill="#FED9A0" width="44.96" height="44.961"/>
			<rect x="264.227" y="445.209" fill="#FFFAC9" width="44.96" height="44.961"/>
			<rect x="219.267" y="490.17" fill="#FFFAC9" width="44.96" height="44.949"/>
			<rect x="174.307" y="445.209" fill="#FFFAC9" width="44.96" height="44.961"/>
			<rect x="219.267" y="445.209" fill="#FFFAC9" width="44.96" height="44.961"/>
			<rect x="219.267" y="400.25" fill="#FFFAC9" width="44.96" height="44.959"/>
			<rect x="219.267" y="355.289" fill="#F9C7B2" width="44.96" height="44.961"/>
			<rect x="264.227" y="355.289" fill="#F9C7B2" width="44.96" height="44.961"/>
			<rect x="264.227" y="400.25" fill="#F9C7B2" width="44.96" height="44.959"/>
			<polygon fill="#F9C7B2" points="354.137,400.25 354.137,445.209 353.967,445.209 309.187,445.209 309.187,400.25 353.967,400.25 
							"/>
			<polygon fill="#F9C7B2" points="354.137,355.289 354.137,400.25 353.967,400.25 309.187,400.25 309.187,355.289 353.967,355.289 
							"/>
		</g>
		<g>
			<polyline fill="none" stroke="#000000" stroke-width="2" stroke-miterlimit="10" points="39.437,580.08 129.347,580.08 
				174.307,580.08 219.267,580.08 264.227,580.08 309.187,580.08 353.967,580.08 			"/>
			<polyline fill="none" stroke="#000000" stroke-width="0.9352" stroke-miterlimit="10" points="39.437,535.119 129.347,535.119 
				174.307,535.119 219.267,535.119 264.227,535.119 309.187,535.119 353.967,535.119 			"/>
			<polyline fill="none" stroke="#000000" stroke-width="0.9352" stroke-miterlimit="10" points="39.437,490.17 129.347,490.17 
				174.307,490.17 219.267,490.17 264.227,490.17 309.187,490.17 353.967,490.17 			"/>
			<polyline fill="none" stroke="#000000" stroke-width="0.9352" stroke-miterlimit="10" points="39.437,445.209 129.347,445.209 
				174.307,445.209 219.267,445.209 264.227,445.209 309.187,445.209 353.967,445.209 			"/>
			<polyline fill="none" stroke="#000000" stroke-width="0.9352" stroke-miterlimit="10" points="39.437,400.25 129.347,400.25 
				174.307,400.25 219.267,400.25 264.227,400.25 309.187,400.25 353.967,400.25 			"/>
			<polyline fill="none" stroke="#000000" stroke-width="2" stroke-miterlimit="10" points="39.437,355.289 129.347,355.289 
				174.307,355.289 219.267,355.289 264.227,355.289 309.187,355.289 353.967,355.289 			"/>
			<polyline fill="none" stroke="#000000" stroke-width="2" stroke-miterlimit="10" points="354.137,265.37 354.137,355.289 
				354.137,400.25 354.137,445.209 354.137,490.17 354.137,535.119 354.137,579.938 			"/>
			<polyline fill="none" stroke="#000000" stroke-width="0.9352" stroke-miterlimit="10" points="309.187,265.37 309.187,355.289 
				309.187,400.25 309.187,445.209 309.187,490.17 309.187,535.119 309.187,579.938 			"/>
			<polyline fill="none" stroke="#000000" stroke-width="0.9352" stroke-miterlimit="10" points="264.227,265.37 264.227,355.289 
				264.227,400.25 264.227,445.209 264.227,490.17 264.227,535.119 264.227,579.938 			"/>
			<polyline fill="none" stroke="#000000" stroke-width="0.9352" stroke-miterlimit="10" points="219.267,265.37 219.267,355.289 
				219.267,400.25 219.267,445.209 219.267,490.17 219.267,535.119 219.267,579.938 			"/>
			<polyline fill="none" stroke="#000000" stroke-width="0.9352" stroke-miterlimit="10" points="174.307,265.37 174.307,355.289 
				174.307,400.25 174.307,445.209 174.307,490.17 174.307,535.119 174.307,579.938 			"/>
			<polyline fill="none" stroke="#000000" stroke-width="2" stroke-miterlimit="10" points="129.347,265.37 129.347,355.289 
				129.347,400.25 129.347,445.209 129.347,490.17 129.347,535.119 129.347,579.938 			"/>
		</g>
	</g>
</g>
<text transform="matrix(0 -1 1 0 20.0977 502.0195)" font-family="'MyriadPro-Regular'" font-size="12">First Ingredient</text>
<text transform="matrix(1 0 0 1 195.5313 254.748)" font-family="'MyriadPro-Regular'" font-size="12">Second Ingredient</text>
<text transform="matrix(1 0 0 1 368.9048 402.9053)" font-family="'MyriadPro-Regular'" font-size="16">Strong Reaction</text>
<text transform="matrix(1 0 0 1 369.688 413.5391)" font-family="'MyriadPro-Regular'" font-size="8.419">   n:</text>
<text transform="matrix(1 0 0 1 381.4595 413.5391)" font-family="'MyriadPro-Regular'" font-size="8.419" letter-spacing="9"> </text>
<text transform="matrix(1 0 0 1 394.9458 413.5391)" font-family="'MyriadPro-Regular'" font-size="8.419">&quot;Gain 3 Nitre&quot;,</text>
<text transform="matrix(1 0 0 1 369.688 423.6426)" font-family="'MyriadPro-Regular'" font-size="8.419">   a: </text>
<text transform="matrix(1 0 0 1 382.6284 423.6426)" font-family="'MyriadPro-Regular'" font-size="8.419" letter-spacing="9"> </text>
<text transform="matrix(1 0 0 1 394.9458 423.6426)" font-family="'MyriadPro-Regular'" font-size="8.419">&quot;Gain 3 Aqua Fortis&quot;,</text>
<text transform="matrix(1 0 0 1 369.688 433.7441)" font-family="'MyriadPro-Regular'" font-size="8.419">   q:</text>
<text transform="matrix(1 0 0 1 381.5259 433.7441)" font-family="'MyriadPro-Regular'" font-size="8.419" letter-spacing="9"> </text>
<text transform="matrix(1 0 0 1 394.9458 433.7441)" font-family="'MyriadPro-Regular'" font-size="8.419">&quot;Gain 3 Quicksilver&quot;,</text>
<text transform="matrix(1 0 0 1 369.688 443.8477)" font-family="'MyriadPro-Regular'" font-size="8.419">    l:</text>
<text transform="matrix(1 0 0 1 380.5571 443.8477)" font-family="'MyriadPro-Regular'" font-size="8.419" letter-spacing="9"> </text>
<text transform="matrix(1 0 0 1 394.9458 443.8477)" font-family="'MyriadPro-Regular'" font-size="8.419">&quot;Gain 3 Lead&quot;,</text>
<text transform="matrix(1 0 0 1 369.688 453.9492)" font-family="'MyriadPro-Regular'" font-size="8.419">   p: </text>
<text transform="matrix(1 0 0 1 383.3618 453.9492)" font-family="'MyriadPro-Regular'" font-size="8.419" letter-spacing="9"> </text>
<text transform="matrix(1 0 0 1 394.9458 453.9492)" font-family="'MyriadPro-Regular'" font-size="8.419">&quot;Gain 3 Phosphor&quot;,</text>
<text transform="matrix(1 0 0 1 369.688 464.0527)" font-family="'MyriadPro-Regular'" font-size="8.419">   M:</text>
<text transform="matrix(1 0 0 1 383.5552 464.0527)" font-family="'MyriadPro-Regular'" font-size="8.419" letter-spacing="9"> </text>
<text transform="matrix(1 0 0 1 394.9458 464.0527)" font-family="'MyriadPro-Regular'" font-size="8.419"> &quot;The Mixture has Essence of Mind&quot;,</text>
<text transform="matrix(1 0 0 1 369.688 474.1563)" font-family="'MyriadPro-Regular'" font-size="8.419">   B:</text>
<text transform="matrix(1 0 0 1 381.3501 474.1563)" font-family="'MyriadPro-Regular'" font-size="8.419" letter-spacing="9"> </text>
<text transform="matrix(1 0 0 1 394.9458 474.1563)" font-family="'MyriadPro-Regular'" font-size="8.419"> &quot;The Mixture has Essence of Body&quot;,</text>
<text transform="matrix(1 0 0 1 369.688 484.2578)" font-family="'MyriadPro-Regular'" font-size="8.419">   S:</text>
<text transform="matrix(1 0 0 1 380.936 484.2578)" font-family="'MyriadPro-Regular'" font-size="8.419" letter-spacing="9"> </text>
<text transform="matrix(1 0 0 1 394.9458 484.2578)" font-family="'MyriadPro-Regular'" font-size="8.419"> &quot;The Mixture has Essence of Spirit&quot;</text>
<text transform="matrix(1 0 0 1 369.5337 500.9395)" font-family="'MyriadPro-Regular'" font-size="16">Exhaustible Reaction</text>
<g>
	<g transform="translate(0,0)">
		<path fill="#DADADA" stroke="#020303" stroke-width="2.6965" d="M331.172,14.501c-1.924,0-4.287,1.024-6.307,2.795
			c-2.019,1.766-3.611,4.213-4.205,6.317c-0.328,1.166,0.552,5.232,2.079,8.563c0.887,1.936,1.728,3.438,2.372,4.539h12.122
			c0.645-1.103,1.484-2.605,2.371-4.539c1.526-3.328,2.408-7.396,2.079-8.563c-0.594-2.104-2.188-4.555-4.205-6.317
			C335.459,15.53,333.096,14.501,331.172,14.501z M318.675,38.436c-5.717,0.91-10.63,2.529-14.416,4.979
			c-5.747,3.717-9.265,9.157-9.868,18.104c35.89,5.127,37.67,5.127,73.56,0c-0.603-8.945-4.12-14.393-9.867-18.104
			c-3.787-2.447-8.699-4.066-14.416-4.979c-1.066,1.957-1.907,3.258-1.907,3.258l-0.954,1.476h-19.271l-0.953-1.476
			C320.583,41.693,319.743,40.393,318.675,38.436L318.675,38.436z M288.259,67.165c-20.142,9.26-20.147,25.133-20.147,32.971
			c0,22.93,11.465,48.727,22.931,71.658c5.732,5.729,22.932,11.465,40.129,11.465c17.198,0,34.396-5.732,40.129-11.465
			c11.466-22.935,22.932-48.729,22.932-71.658c0-7.838-0.006-23.711-20.148-32.973l-2.327,0.332c-40.129,5.731-41.041,5.731-81.17,0
			L288.259,67.165z"/>
	</g>
	<text transform="matrix(1 0 0 1 304.2188 116.1182)" font-family="'MyriadPro-Regular'" font-size="12">Quicksilver</text>
	<g transform="translate(0,0)">
		<path d="M332.626,121.212c-1.988,0-3.602,1.608-3.602,3.602s1.612,3.604,3.602,3.604c1.99,0,3.603-1.611,3.603-3.604
			C336.228,122.824,334.615,121.212,332.626,121.212L332.626,121.212z M332.303,122.298c-0.229,0.104-0.421,0.268-0.607,0.455
			c-0.83,0.83-0.855,2.18-0.025,3.012c0.829,0.828,2.206,0.828,3.036,0c0.199-0.199,0.326-0.441,0.431-0.684
			c-0.063,0.551-0.287,1.096-0.708,1.516c-0.988,0.988-2.58,0.963-3.567-0.023l0,0c-0.988-0.985-1.013-2.578-0.025-3.563
			C331.241,122.602,331.777,122.37,332.303,122.298L332.303,122.298z M321.937,122.563c-2.783,0-5.039,2.256-5.039,5.039
			s2.256,5.039,5.039,5.039c0.376,0,0.742-0.043,1.094-0.119c0.149,1.854,1.699,3.308,3.589,3.308c1.989,0,3.602-1.609,3.602-3.603
			c0-1.904-1.479-3.463-3.353-3.592c0.069-0.334,0.106-0.682,0.106-1.033C326.975,124.818,324.72,122.563,321.937,122.563
			L321.937,122.563z M321.184,124.41c-0.313,0.146-0.573,0.365-0.828,0.621c-1.131,1.134-1.165,2.978-0.035,4.104
			c1.13,1.131,3.007,1.131,4.138,0c0.271-0.271,0.445-0.603,0.586-0.935c-0.083,0.755-0.39,1.494-0.966,2.07
			c-1.346,1.346-3.516,1.313-4.862-0.035l0,0c-1.345-1.346-1.381-3.516-0.033-4.858C319.735,124.824,320.465,124.511,321.184,124.41
			L321.184,124.41z M339.201,128.765c-3.753,0-6.796,3.043-6.796,6.797c0,3.752,3.042,6.795,6.796,6.795s6.796-3.043,6.796-6.795
			C345.997,131.808,342.955,128.765,339.201,128.765z M326.219,130.13c-0.216,0.098-0.396,0.254-0.572,0.43
			c-0.782,0.781-0.806,2.057-0.025,2.838c0.782,0.781,2.081,0.781,2.862,0c0.188-0.188,0.307-0.414,0.405-0.645
			c-0.058,0.52-0.27,1.03-0.667,1.43c-0.932,0.932-2.432,0.908-3.362-0.021c-0.931-0.932-0.956-2.432-0.024-3.358
			C325.217,130.417,325.722,130.197,326.219,130.13L326.219,130.13z M338.424,130.445c-0.455,0.205-0.837,0.533-1.21,0.908
			c-1.653,1.654-1.703,4.349-0.051,6.002c1.654,1.654,4.399,1.654,6.054,0c0.396-0.395,0.649-0.877,0.856-1.358
			c-0.123,1.098-0.571,2.186-1.412,3.022c-1.969,1.969-5.143,1.92-7.112-0.049c-1.969-1.971-2.02-5.146-0.05-7.111
			C336.305,131.052,337.372,130.593,338.424,130.445L338.424,130.445z M327.238,138.367c-2.778,0-5.029,2.253-5.029,5.029
			c0,2.775,2.251,5.027,5.029,5.027s5.029-2.252,5.029-5.027C332.268,140.62,330.016,138.367,327.238,138.367L327.238,138.367z
			 M326.829,139.74c-0.329,0.146-0.604,0.39-0.875,0.654c-1.193,1.195-1.229,3.141-0.036,4.334c1.194,1.195,3.177,1.195,4.37,0
			c0.286-0.285,0.47-0.631,0.619-0.981c-0.088,0.795-0.412,1.575-1.02,2.188c-1.422,1.422-3.715,1.385-5.135-0.035l0,0
			c-1.422-1.422-1.458-3.715-0.036-5.135C325.3,140.179,326.07,139.845,326.829,139.74L326.829,139.74z M336.408,147.667
			c-1.646,0-3.035,1.104-3.463,2.61c-0.583-0.012-1.17-0.021-1.764-0.021c-7.465,0-14.222,0.916-19.202,2.436
			c-2.49,0.762-4.539,1.664-6.042,2.75c-1.681,1.496-2.982,2.846-2.426,4.994c0.639,4.24,3.749,7.953,8.229,10.646
			c5.043,3.024,11.895,4.852,19.442,4.852c7.547,0,14.398-1.822,19.441-4.852c4.479-2.688,7.587-6.398,8.229-10.644
			c0.082-0.521,0.172-1.129,0.059-1.627c-0.249-1.313-1.197-2.442-2.482-3.373c-1.505-1.084-3.553-1.983-6.042-2.748
			c-2.931-0.895-6.478-1.576-10.417-1.985C339.697,148.982,338.207,147.667,336.408,147.667L336.408,147.667z M336.261,149.017
			c-0.216,0.096-0.396,0.252-0.572,0.428c-0.782,0.783-0.807,2.06-0.024,2.838c0.782,0.781,2.08,0.781,2.861,0
			c0.188-0.186,0.308-0.414,0.406-0.643c-0.059,0.52-0.271,1.031-0.668,1.43c-0.931,0.935-2.432,0.908-3.362-0.021
			c-0.931-0.934-0.955-2.435-0.024-3.361C335.26,149.302,335.765,149.083,336.261,149.017L336.261,149.017z M331.181,152.436
			c0.615,0,1.224,0.01,1.828,0.021c0.491,1.399,1.827,2.407,3.398,2.407c1.417,0,2.641-0.813,3.229-2.006
			c3.872,0.4,7.329,1.064,10.11,1.914c2.342,0.715,4.205,1.566,5.405,2.437c1.079,0.772,1.548,1.483,1.632,2.09
			c-0.013,0.225-0.033,0.447-0.063,0.67c-0.173,0.543-0.648,1.156-1.569,1.817c-0.28,0.199-0.598,0.4-0.948,0.604
			c-7.046-7.867-37.211-8.32-46.223-0.102c-0.282-0.164-0.541-0.332-0.774-0.505c-0.922-0.666-1.397-1.276-1.57-1.817
			c-0.029-0.226-0.05-0.443-0.063-0.664c0.083-0.604,0.552-1.314,1.632-2.096c1.199-0.865,3.063-1.722,5.405-2.435
			C317.3,153.347,323.896,152.436,331.181,152.436L331.181,152.436z M307.537,164.535c1.254,0.664,2.745,1.248,4.441,1.771
			c4.98,1.52,11.738,2.434,19.202,2.434c7.465,0,14.222-0.914,19.202-2.434c1.696-0.521,3.187-1.104,4.44-1.771
			c-1.245,1.73-3.046,3.318-5.321,4.687c-4.625,2.773-11.127,4.543-18.322,4.543c-7.194,0-13.697-1.766-18.322-4.543
			C310.583,167.854,308.782,166.267,307.537,164.535L307.537,164.535z"/>
	</g>
	<g transform="translate(0,0)">
		<path fill="#010202" stroke="#020303" stroke-width="0.428" d="M320.849,78.451c-1.209,0-2.189,0.98-2.189,2.189v20.646
			c0,1.207,0.98,2.188,2.189,2.188l0,0h20.646c1.209,0,2.189-0.98,2.189-2.188l0,0V80.642c0-1.209-0.98-2.189-2.189-2.189
			L320.849,78.451L320.849,78.451z M338.877,80.501c1.537,0.045,2.76,1.305,2.761,2.842c0,1.57-1.273,2.844-2.845,2.844
			c-1.57,0-2.844-1.271-2.844-2.844s1.273-2.844,2.844-2.842C338.821,80.501,338.848,80.501,338.877,80.501z M331.172,88.119
			c1.57,0,2.845,1.273,2.845,2.847c0,1.568-1.273,2.844-2.845,2.844c-1.57,0-2.844-1.271-2.844-2.844S329.603,88.119,331.172,88.119
			z M323.635,95.742c1.536,0.05,2.76,1.308,2.76,2.845c0,1.567-1.273,2.844-2.844,2.844s-2.845-1.271-2.845-2.844
			c0-1.57,1.273-2.847,2.845-2.847C323.579,95.74,323.606,95.742,323.635,95.742z"/>
	</g>
</g>
<g transform="translate(0,0)">
	<path fill="#008CC4" stroke="#020303" stroke-width="2.6965" d="M201.714,13.763c-1.924,0-4.288,1.029-6.307,2.795
		s-3.611,4.213-4.205,6.322c-0.328,1.164,0.552,5.229,2.079,8.561c0.887,1.938,1.727,3.441,2.372,4.539h12.122
		c0.645-1.098,1.484-2.604,2.371-4.539c1.527-3.328,2.408-7.395,2.079-8.561c-0.594-2.109-2.186-4.56-4.205-6.322
		C206.001,14.794,203.638,13.763,201.714,13.763z M189.217,37.697c-5.716,0.91-10.629,2.529-14.416,4.98
		c-5.747,3.715-9.264,9.16-9.868,18.104c35.89,5.127,37.67,5.127,73.56,0c-0.603-8.94-4.12-14.393-9.866-18.104
		c-3.787-2.449-8.7-4.068-14.417-4.98c-1.067,1.957-1.908,3.263-1.908,3.263l-0.954,1.471h-19.271l-0.953-1.471
		C191.125,40.956,190.285,39.654,189.217,37.697L189.217,37.697z M158.801,66.427c-20.141,9.26-20.147,25.133-20.147,32.971
		c0,22.93,11.465,48.729,22.931,71.658c5.732,5.732,22.931,11.465,40.129,11.465c17.198,0,34.396-5.729,40.129-11.465
		c11.466-22.932,22.931-48.729,22.931-71.658c0-7.838-0.006-23.711-20.148-32.971l-2.326,0.332c-40.129,5.729-41.041,5.729-81.17,0
		L158.801,66.427z"/>
	<g transform="translate(0,0)">
		<path fill="#010202" d="M201.024,126.882l-0.237,0.646c0,0-1.862,5.088-4.555,9.949c-2.727,4.922-2.936,4.826-6.288,9.609
			c-2.3,3.278-4.853,6.932-4.853,11.653c0,9.185,7.451,16.705,16.623,16.705c9.173,0,16.623-7.521,16.623-16.705
			c0-4.713-2.563-8.381-4.852-11.653c-3.375-4.828-3.674-4.857-6.401-9.777c-2.691-4.859-4.44-9.773-4.44-9.773l-0.233-0.653
			H201.024L201.024,126.882z M202.56,132.572c0.731,1.67,1.664,3.646,2.798,5.693c0.256,0.463,0.486,0.873,0.707,1.26
			c-0.924-0.58-1.816-0.748-2.474-0.369c-1.36,0.785-1.196,3.617,0.368,6.324c1.563,2.709,3.934,4.271,5.294,3.482
			c0.843-0.486,1.1-1.763,0.802-3.304c0.506,0.705,1.081,1.513,1.812,2.56c0.395,0.563,0.787,1.131,1.167,1.699l-3.437,3.02
			l-10.226-5.076L202.56,132.572L202.56,132.572z M200.286,133.809l-2.57,12.324c-0.213-0.334-0.503-0.523-0.868-0.531
			c-1.426-0.031-3.44,2.715-4.498,6.133c-1.057,3.42-0.757,6.219,0.669,6.25c0.381,0.01,0.805-0.184,1.241-0.531l-0.837,2.646
			l-6.282-2.629c0.403-3.438,2.373-6.33,4.419-9.248c3.323-4.742,3.645-4.816,6.398-9.787
			C198.851,136.822,199.628,135.24,200.286,133.809L200.286,133.809z M198.765,149.767l4.334,2.15
			c-2.521,0.514-4.418,2.739-4.418,5.416c0,3.051,2.474,5.522,5.525,5.522c1.593,0,3.027-0.676,4.035-1.752l-0.377,3.476
			l-8.028,2.344l-4.678-5.771L198.765,149.767L198.765,149.767z M214.101,151.605c0.442,0.748,0.847,1.506,1.185,2.287
			c-0.106-0.021-0.214-0.033-0.324-0.033c-1.512,0-2.738,1.988-2.738,4.439s1.226,4.438,2.738,4.438
			c0.325,0,0.637-0.094,0.926-0.262c-0.396,1.521-1.027,2.945-1.854,4.234l-4.203-1.957l1.127-10.385L214.101,151.605
			L214.101,151.605z M187.089,159.587l5.211,2.18c-1.004,0.406-1.713,1.389-1.713,2.539c0,1.512,1.226,2.738,2.738,2.738
			c1.195,0,2.211-0.771,2.584-1.834l2.283,2.813l-0.912,4.763C191.61,170.975,187.438,165.783,187.089,159.587z M210.241,167.124
			l2.591,1.205c-2.686,3.146-6.669,5.146-11.119,5.146c-0.858,0-1.698-0.074-2.516-0.217l0.831-4.338l3.206-0.938
			c-0.657,0.521-1.083,1.063-1.136,1.537c-0.116,1.049,1.614,1.359,3.862,0.695C208.204,169.556,210.116,168.171,210.241,167.124
			L210.241,167.124z"/>
	</g>
	<text transform="matrix(1 0 0 1 173.25 115.7842)" font-family="'MyriadPro-Regular'" font-size="12">Aqua Fortis</text>
	<g transform="translate(0,0)">
		<path fill="#010202" stroke="#020303" stroke-width="0.4055" d="M190.967,78.076c-1.146,0-2.075,0.935-2.075,2.074v19.564
			c0,1.145,0.929,2.074,2.075,2.074l0,0h19.56c1.147,0,2.075-0.933,2.075-2.074l0,0V80.15c0-1.145-0.928-2.074-2.075-2.074H190.967z
			 M208.048,80.02c1.457,0.041,2.615,1.234,2.615,2.693c0,1.483-1.206,2.688-2.694,2.688c-1.488,0-2.694-1.205-2.694-2.688
			c0-1.49,1.207-2.695,2.694-2.693C207.995,80.02,208.021,80.02,208.048,80.02z M193.606,94.462
			c1.456,0.043,2.615,1.231,2.615,2.688c0,1.488-1.207,2.693-2.694,2.693c-1.488,0-2.694-1.205-2.694-2.693
			c0-1.483,1.206-2.69,2.694-2.69C193.553,94.46,193.58,94.46,193.606,94.462z"/>
	</g>
</g>
<g transform="translate(0,0)">
	<path fill="#8C7EB9" stroke="#020303" stroke-width="2.6965" d="M461.516,14.501c-1.924,0-4.287,1.026-6.307,2.795
		c-2.02,1.766-3.611,4.213-4.205,6.319c-0.328,1.164,0.553,5.232,2.078,8.563c0.889,1.936,1.729,3.441,2.373,4.539h12.121
		c0.645-1.098,1.484-2.604,2.371-4.539c1.527-3.328,2.408-7.396,2.08-8.563c-0.594-2.106-2.189-4.557-4.205-6.319
		C465.803,15.53,463.44,14.501,461.516,14.501z M449.02,38.436c-5.717,0.91-10.629,2.529-14.416,4.98
		c-5.748,3.715-9.266,9.155-9.867,18.104c35.889,5.127,37.67,5.127,73.559,0c-0.602-8.945-4.111-14.393-9.857-18.104
		c-3.787-2.449-8.701-4.068-14.418-4.98c-1.066,1.957-1.908,3.258-1.908,3.258l-0.953,1.476h-19.277l-0.953-1.476
		C450.928,41.693,450.086,40.393,449.02,38.436L449.02,38.436z M418.604,67.165c-20.142,9.26-20.148,25.133-20.148,32.971
		c0,22.93,11.466,48.727,22.933,71.658c5.73,5.729,22.93,11.465,40.129,11.465c17.197,0,34.395-5.732,40.129-11.465
		c11.467-22.935,22.932-48.729,22.932-71.658c0-7.838-0.006-23.711-20.145-32.971l-2.326,0.332c-40.131,5.729-41.041,5.729-81.172,0
		L418.604,67.165z"/>
	<g transform="translate(0,0)">
		<path fill="#010202" d="M470.293,128.822l-31.688,16.896l-5,13.354l0.879,0.472l18.67,9.938l37.48-19.949l-4.594-12.139
			L470.293,128.822L470.293,128.822z M484.754,140.388l3.051,8.074l-12.459,6.631l8.086-14.004L484.754,140.388L484.754,140.388z
			 M473.872,146.146l-8.107,14.047l-5.064,2.695l8.771-14.412L473.872,146.146L473.872,146.146z M439.936,148.638l3.426,1.813
			l-6.563,6.563L439.936,148.638z M465.549,150.554l-8.75,14.375l0.031,0.02l-2.09,1.113l0.705-10.16L465.549,150.554
			L465.549,150.554z M445.463,151.563l2.061,1.092l-7.344,7.347l-2.057-1.099L445.463,151.563L445.463,151.563z M453.184,155.697
			l-0.75,10.82l-6.574-3.496L453.184,155.697z"/>
	</g>
	<text transform="matrix(1 0 0 1 451.8345 115.4502)" font-family="'MyriadPro-Regular'" font-size="12">Lead</text>
	<g transform="translate(0,0)">
		<path fill="#010202" stroke="#020303" stroke-width="0.4344" d="M451.038,77.388c-1.227,0-2.221,0.994-2.221,2.223v20.953
			c0,1.229,0.994,2.223,2.221,2.223l0,0h20.955c1.229,0,2.223-0.991,2.223-2.223l0,0V79.61c0-1.229-0.992-2.223-2.223-2.223H451.038
			z M453.866,79.466c1.563,0.047,2.801,1.324,2.801,2.887c0,1.594-1.291,2.885-2.885,2.885s-2.887-1.291-2.887-2.885
			c0-1.596,1.293-2.887,2.887-2.887C453.811,79.466,453.836,79.466,453.866,79.466z M469.336,79.466
			c1.561,0.047,2.803,1.324,2.803,2.887c0,1.594-1.293,2.885-2.889,2.885c-1.594,0-2.885-1.291-2.885-2.885
			c0-1.596,1.291-2.887,2.885-2.887C469.28,79.466,469.309,79.466,469.336,79.466z M453.866,94.936
			c1.563,0.047,2.801,1.324,2.801,2.885c0,1.597-1.291,2.892-2.885,2.892s-2.887-1.295-2.887-2.892c0-1.594,1.293-2.885,2.887-2.885
			C453.811,94.936,453.836,94.936,453.866,94.936z M469.336,94.936c1.561,0.047,2.803,1.324,2.803,2.885
			c0,1.597-1.293,2.892-2.889,2.892c-1.594,0-2.885-1.295-2.885-2.892c0-1.594,1.291-2.885,2.885-2.885
			C469.28,94.936,469.309,94.936,469.336,94.936z"/>
	</g>
</g>
<g transform="translate(0,0)">
	<path fill="#E2343C" stroke="#020303" stroke-width="2.6965" d="M590.85,14.501c-1.924,0-4.287,1.026-6.307,2.795
		c-2.02,1.766-3.611,4.213-4.205,6.319c-0.328,1.164,0.553,5.232,2.078,8.563c0.887,1.936,1.727,3.441,2.373,4.539h12.121
		c0.645-1.098,1.484-2.604,2.371-4.539c1.527-3.328,2.408-7.396,2.08-8.563c-0.594-2.106-2.189-4.557-4.205-6.319
		C595.137,15.53,592.774,14.501,590.85,14.501z M578.352,38.436c-5.715,0.91-10.629,2.529-14.414,4.98
		c-5.748,3.715-9.266,9.155-9.869,18.104c35.891,5.127,37.672,5.127,73.561,0c-0.602-8.945-4.115-14.393-9.857-18.104
		c-3.787-2.449-8.701-4.068-14.418-4.98c-1.066,1.957-1.908,3.258-1.908,3.258l-0.953,1.476h-19.271l-0.953-1.476
		C580.26,41.693,579.42,40.393,578.352,38.436L578.352,38.436z M547.938,67.165c-20.143,9.26-20.148,25.133-20.148,32.971
		c0,22.93,11.465,48.727,22.939,71.658c5.729,5.729,22.93,11.465,40.129,11.465c17.189,0,34.395-5.732,40.129-11.465
		c11.467-22.935,22.932-48.729,22.932-71.658c0-7.838-0.006-23.711-20.148-32.971l-2.326,0.332c-40.131,5.729-41.043,5.729-81.172,0
		L547.938,67.165z"/>
	<g transform="translate(0,0)">
		<path fill="#010202" d="M582.29,124.064l-1.746,2.332l1.746,2.332l1.748-2.332L582.29,124.064z M603.325,124.845l-2.291,3.055
			l2.291,3.062l2.287-3.062L603.325,124.845z M589.95,126.742l-2.287,3.06l2.287,3.053l2.291-3.053L589.95,126.742L589.95,126.742z
			 M570.348,127.091l-1.744,2.332l1.744,2.332l1.748-2.332L570.348,127.091L570.348,127.091z M610.502,129.642l-1.396,3.018
			l-3.021,1.396l3.021,1.453l1.396,2.961l1.393-3.021l3.021-1.395l-2.965-1.396L610.502,129.642L610.502,129.642z M579.62,130.999
			l-1.752,3.795l-3.795,1.75l3.797,1.823l1.75,3.724l1.748-3.795l3.797-1.752l-3.723-1.75L579.62,130.999L579.62,130.999z
			 M601.034,131.943l-2.291,3.058l2.291,3.057l2.287-3.057L601.034,131.943L601.034,131.943z M590.752,138.425l-1.898,2.535
			l1.898,2.532l1.898-2.532L590.752,138.425z M601.329,141.613l-1.436,3.117l-3.119,1.439l3.119,1.498l1.436,3.061l1.441-3.119
			l3.119-1.438l-3.064-1.438L601.329,141.613L601.329,141.613z M573.569,142.329l-1.748,2.329l1.748,2.332l1.746-2.332
			L573.569,142.329L573.569,142.329z M583.233,145.105l-1.746,2.334l1.746,2.332l1.748-2.332L583.233,145.105L583.233,145.105z
			 M590.692,147.576c-0.789,0.015-1.469,0.445-2.227,1.029c-4.727,3.646-10.711,8.938-10.783,11.894
			c-0.846,0.102-1.598,0.541-1.598,1.313c0,1.156,1.58,1.57,2.732,1.258c-0.021,0.07-0.021,0.146-0.021,0.226
			c0,1.647,3.225,1.791,3.824,0.459c3.551,0.944,7.908,1.104,11.889,0.633c0.242,1.533,3.486,1.557,3.869,0.104
			c1.053,0.773,2.969,0.818,4.129,0.146c1.096,0.69,3.328,0.354,3.328-1.008c0-0.201-0.049-0.384-0.135-0.535
			c0.6-0.264,1.031-0.72,1.031-1.373c0-1.475-2.17-1.924-3.564-1.396c-0.467-3.199-6.129-8.699-10.354-11.877
			C591.981,147.814,591.305,147.568,590.692,147.576L590.692,147.576z M572.678,159.117c-1.104,0.003-2.207,0.519-2.207,1.529
			c0,2.029,4.414,1.992,4.414,0C574.885,159.622,573.782,159.113,572.678,159.117L572.678,159.117z M612.76,160.454
			c-0.98,0.008-1.961,0.454-1.961,1.342c0,1.815,3.922,1.803,3.922,0C614.721,160.892,613.741,160.449,612.76,160.454z
			 M568.745,162.068c-0.979,0.002-1.961,0.455-1.961,1.355c0,1.805,3.922,1.77,3.922,0
			C570.706,162.517,569.725,162.066,568.745,162.068z M611.012,164.48c-1.105,0.002-2.207,0.519-2.207,1.529
			c0,2.031,4.41,1.992,4.41,0C613.215,164.986,612.116,164.479,611.012,164.48L611.012,164.48z M582.899,165.158
			c-0.615,0-1.232,0.185-1.604,0.537c-1.152-0.5-3.066-0.106-3.066,1.148c0,1.469,2.6,1.717,3.563,0.803
			c1.154,0.492,3.068,0.104,3.068-1.133C584.86,165.604,583.879,165.154,582.899,165.158L582.899,165.158z M591.852,165.32
			c-0.979,0.004-1.959,0.453-1.959,1.338c0,1.82,3.92,1.808,3.92,0C593.813,165.759,592.833,165.316,591.852,165.32z
			 M572.141,166.283c-0.979,0.003-1.959,0.455-1.959,1.357c0,1.803,3.92,1.768,3.92,0
			C574.102,166.73,573.122,166.281,572.141,166.283z M602.786,167.638c-0.979,0.004-1.959,0.457-1.959,1.342
			c0,1.014,1.215,1.457,2.293,1.34c-0.074,0.16-0.113,0.338-0.113,0.533c0,1.932,3.75,2.107,4.492,0.568
			c1.061,0.086,2.221-0.367,2.221-1.353c0-1.51-2.75-1.729-3.645-0.725c-0.443-0.094-0.932-0.101-1.383-0.021
			c0.035-0.104,0.055-0.225,0.055-0.35C604.747,168.076,603.766,167.634,602.786,167.638L602.786,167.638z M587.293,167.997
			c-1.123,0.004-2.246,0.521-2.246,1.532c0,2.088,4.496,2.068,4.496,0C589.543,168.499,588.418,167.992,587.293,167.997
			L587.293,167.997z M597.622,169.813c-1.289,0.002-2.576,0.604-2.576,1.787c0,2.369,5.152,2.324,5.152,0
			C600.198,170.402,598.909,169.809,597.622,169.813L597.622,169.813z M581.915,170.503c-1.125,0.006-2.25,0.521-2.25,1.535
			c0,2.088,4.494,2.065,4.494,0C584.159,171.005,583.038,170.497,581.915,170.503L581.915,170.503z"/>
	</g>
	<text transform="matrix(1 0 0 1 566.6587 115.7842)" font-family="'MyriadPro-Regular'" font-size="12">Phosphor</text>
	<g transform="translate(0,0)">
		<path fill="#010202" stroke="#020303" stroke-width="0.4386" d="M580.641,76.951c-1.24,0-2.244,1.007-2.244,2.242v21.156
			c0,1.24,1.004,2.244,2.244,2.244l0,0h21.154c1.24,0,2.244-1.004,2.244-2.244l0,0V79.193c0-1.235-1.004-2.242-2.244-2.242H580.641z
			 M583.495,79.052c1.576,0.045,2.828,1.336,2.828,2.912c0,1.604-1.305,2.914-2.914,2.914s-2.914-1.31-2.914-2.914
			c0-1.609,1.307-2.914,2.914-2.914C583.438,79.05,583.467,79.05,583.495,79.052z M599.114,79.052
			c1.576,0.045,2.828,1.336,2.828,2.912c0,1.604-1.303,2.914-2.912,2.914c-1.611,0-2.916-1.31-2.916-2.914
			c0-1.609,1.307-2.914,2.916-2.914C599.057,79.05,599.086,79.05,599.114,79.052z M591.219,86.857c1.607,0,2.912,1.31,2.912,2.916
			c0,1.607-1.305,2.914-2.912,2.914c-1.609,0-2.916-1.307-2.916-2.914C588.303,88.165,589.61,86.857,591.219,86.857z
			 M583.495,94.671c1.576,0.047,2.828,1.336,2.828,2.912c0,1.606-1.305,2.914-2.914,2.914s-2.914-1.308-2.914-2.914
			c0-1.609,1.307-2.914,2.914-2.914C583.438,94.669,583.467,94.671,583.495,94.671z M599.114,94.671
			c1.576,0.047,2.828,1.336,2.828,2.912c0,1.606-1.303,2.914-2.912,2.914c-1.611,0-2.916-1.308-2.916-2.914
			c0-1.609,1.307-2.914,2.916-2.914C599.057,94.669,599.086,94.671,599.114,94.671z"/>
	</g>
</g>
<g transform="translate(0,0)">
	<path fill="#010202" stroke="#020303" stroke-width="2.747" d="M744.095,46.233c-15.879,0-30.225,1.971-40.371,5
		c-5.035,1.496-9.051,3.322-11.533,5.106c-2.518,1.757-3.213,3.179-3.213,4.125c0,0.949,0.695,2.373,3.213,4.125
		c0.547,0.4,1.205,0.806,1.939,1.203c0.221-3.139,2.594-5.291,5.258-6.896c2.811-1.682,6.461-2.957,10.877-4.088
		c8.834-2.191,20.689-3.504,33.836-3.504c13.141,0,25.002,1.313,33.836,3.504c4.416,1.131,8.063,2.406,10.877,4.088
		c2.664,1.604,5.037,3.76,5.256,6.896c0.729-0.397,1.387-0.803,1.936-1.203c2.52-1.752,3.211-3.176,3.211-4.125
		c0-0.946-0.691-2.37-3.211-4.125c-2.482-1.784-6.498-3.61-11.533-5.106C774.316,48.203,759.972,46.233,744.095,46.233
		L744.095,46.233z M738.218,56.892c-6.498,0.069-15.732,0.653-24.164,3.063c-13.104,3.834-11.389,10.111-11.389,10.111
		c7.301-5.402,14.637-8.504,43.982-12.922C746.65,57.147,743.291,56.854,738.218,56.892z M689.527,70.726l0.73,6.352
		c11.313,6.789,32.631,10.771,53.838,10.771s42.52-3.979,53.838-10.771l0.729-6.352c-3.248,2.08-7.408,3.795-12.338,5.293
		c-10.984,3.28-25.842,5.256-42.229,5.256c-16.396,0-31.246-1.973-42.232-5.256C696.937,74.521,692.775,72.806,689.527,70.726z
		 M796.984,85.069c-2.738,1.313-5.73,2.479-8.906,3.504l-3.723,39.566c3.32-0.478,5.547-1.938,8.029-3.832L796.984,85.069z
		 M691.205,85.106l6.645,56.465c2.445,1.096,4.965,2.082,7.557,2.957l-5.072-55.881C697.082,87.623,694.015,86.42,691.205,85.106z
		 M781.289,90.472c-5.184,1.274-10.768,2.188-16.57,2.848l-2.664,55.918c4.744-0.693,9.416-1.643,13.941-2.848L781.289,90.472
		L781.289,90.472z M707.119,90.543l1.717,18.871c5.293,2.045,13.943,3.285,20.295,3.142V93.828
		C721.392,93.244,713.945,92.151,707.119,90.543L707.119,90.543z M758.111,93.903c-4.6,0.363-9.309,0.51-14.016,0.51
		c-2.814,0-5.621-0.072-8.396-0.182v56.1c6.605,0.402,13.213,0.293,19.746-0.326L758.111,93.903z M709.529,116.715l2.701,29.857
		c5.512,1.496,11.168,2.555,16.9,3.211V119.16C722.998,119.416,715.697,118.687,709.529,116.715L709.529,116.715z M791.4,132.629
		c-2.191,1.099-4.709,1.938-7.703,2.189l-0.912,9.527c2.592-0.878,5.109-1.826,7.557-2.851L791.4,132.629L791.4,132.629z
		 M789.464,148.946c-27.484,10.584-61.979,11.496-90.74,0.109l1.789,15.219c2.373,2.957,7.994,6.021,15.586,7.994
		c8.029,2.08,17.994,3.176,27.996,3.176c10,0,19.965-1.096,27.994-3.176c7.594-1.974,13.215-5.037,15.586-7.994l0.146-1.24
		c-0.658,0.547-1.434,0.84-2.227,0.84c-2.193,0.006-3.98-2.168-3.98-4.854c0.006-2.689,1.787-4.861,3.98-4.855
		c1.184-0.006,2.307,0.64,3.063,1.752L789.464,148.946z M706.791,155.295c2.191-0.004,3.973,2.168,3.98,4.855
		c-0.008,2.688-1.787,4.854-3.98,4.854c-2.189,0.005-3.971-2.168-3.979-4.854C702.82,157.463,704.599,155.291,706.791,155.295z
		 M767.929,159.42c2.191-0.006,3.973,2.168,3.979,4.854c-0.006,2.688-1.787,4.859-3.979,4.854c-2.191,0.006-3.973-2.168-3.979-4.854
		C763.957,161.588,765.738,159.414,767.929,159.42z M722.96,159.677c2.191-0.007,3.973,2.17,3.979,4.854
		c-0.006,2.686-1.787,4.857-3.979,4.854c-2.191,0.006-3.973-2.171-3.979-4.854C718.988,161.843,720.769,159.67,722.96,159.677z
		 M746.029,161.463c2.191-0.004,3.973,2.168,3.98,4.855c-0.014,2.688-1.789,4.856-3.98,4.854c-2.189,0.009-3.971-2.168-3.979-4.854
		C742.058,163.631,743.837,161.459,746.029,161.463z"/>
</g>
<g>
	<g transform="translate(0,0)">
		<path fill="#DDCD4B" stroke="#020303" stroke-width="2.6965" d="M72.38,13.765c-1.924,0-4.288,1.027-6.307,2.795
			c-2.019,1.766-3.611,4.213-4.205,6.32c-0.328,1.166,0.552,5.229,2.079,8.563c0.887,1.938,1.727,3.439,2.372,4.537h12.122
			c0.645-1.098,1.484-2.604,2.371-4.537c1.527-3.33,2.408-7.396,2.079-8.563c-0.594-2.107-2.186-4.56-4.205-6.32
			C76.667,14.792,74.304,13.765,72.38,13.765z M59.883,37.699c-5.716,0.91-10.629,2.529-14.416,4.979
			c-5.747,3.715-9.264,9.16-9.868,18.104c35.89,5.125,37.67,5.125,73.56,0c-0.603-8.942-4.12-14.393-9.866-18.104
			c-3.787-2.449-8.7-4.068-14.417-4.979c-1.067,1.957-1.908,3.261-1.908,3.261l-0.954,1.471h-19.27l-0.953-1.471
			C61.792,40.956,60.951,39.656,59.883,37.699L59.883,37.699z M29.467,66.429C9.326,75.688,9.32,91.56,9.32,99.397
			c0,22.932,11.465,48.729,22.931,71.66c5.732,5.73,22.931,11.465,40.129,11.465c17.198,0,34.396-5.729,40.129-11.465
			c11.466-22.932,22.931-48.73,22.931-71.66c0-7.838-0.006-23.709-20.148-32.971l-2.326,0.332c-40.129,5.729-41.041,5.729-81.17,0
			L29.467,66.429z"/>
	</g>
	<g transform="translate(0,0)">
		<path fill="#010202" stroke="#020303" stroke-width="0.4066" d="M62.573,79.076c-1.149,0-2.081,0.935-2.081,2.08v19.613
			c0,1.15,0.932,2.08,2.081,2.08l0,0h19.613c1.149,0,2.081-0.93,2.081-2.08l0,0V81.156c0-1.146-0.931-2.08-2.081-2.08H62.573z
			 M72.38,88.263c1.492,0,2.702,1.209,2.702,2.701s-1.209,2.701-2.702,2.701c-1.493,0-2.702-1.209-2.702-2.701
			S70.887,88.263,72.38,88.263z"/>
	</g>
	<g transform="translate(0,0)">
		<path fill="#010202" d="M69.838,126.395c-7.957,1.094-10.612,10.541-8.874,16.813c2.217,7.989-7.477,8.715-5.36-3.979
			c-2.806,4.576-3.592,8.644-3.026,12.074c0.002,0.01,0.005,0.018,0.006,0.028c0.629,3.378,2.405,5.994,4.816,7.908
			c1.549,1.23,3.365,2.156,5.295,2.763c-6.181-14.996,15.878-14.937,9.258,0.396c2.151-0.498,4.129-1.428,5.716-2.789
			c2.113-1.813,3.583-4.387,3.895-7.885c0.147-2.529-0.242-5.5-1.331-8.945c-2.764,10.729-8.817,8.166-3.239-5.479
			C67.088,145.902,65.827,135.501,69.838,126.395L69.838,126.395z M83.326,153.061c-0.109,0.658-0.256,1.289-0.439,1.896
			c1.523,0.563,2.735,1.203,3.553,1.854c0.932,0.738,1.291,1.406,1.291,1.992s-0.359,1.258-1.291,1.994
			c-0.933,0.735-2.385,1.473-4.221,2.086c-3.673,1.229-8.865,2.02-14.597,2.02c-5.731,0-10.919-0.787-14.592-2.02
			c-1.837-0.613-3.289-1.351-4.221-2.086c-0.932-0.736-1.292-1.408-1.292-1.994s0.36-1.254,1.292-1.992
			c0.712-0.563,1.726-1.123,2.984-1.631c-0.265-0.578-0.498-1.178-0.691-1.807c-1.393,0.557-2.57,1.19-3.494,1.926
			c-1.11,0.881-1.894,1.961-2.005,3.199h-0.016v0.967c0,4.635,2.561,8.795,6.559,11.739c3.997,2.943,9.449,4.729,15.449,4.729
			c5.999,0,11.451-1.785,15.448-4.729c3.997-2.944,6.559-7.104,6.559-11.739h-0.007c0.042-0.217,0.068-0.438,0.068-0.662
			c0-1.363-0.821-2.553-2.022-3.504C86.542,154.427,85.083,153.689,83.326,153.061L83.326,153.061z"/>
	</g>
	<text transform="matrix(1 0 0 1 60.0742 121.21)" font-family="'MyriadPro-Regular'" font-size="12">Nitre</text>
</g>
<g transform="translate(0,0)">
	<path fill="#010202" stroke="#020303" stroke-width="0.428" d="M338.211,233.691c1.21,0,2.19-0.979,2.19-2.188v-20.646
		c0-1.211-0.98-2.188-2.19-2.188l0,0h-20.646c-1.209,0-2.189,0.979-2.189,2.188l0,0v20.646c0,1.212,0.98,2.188,2.189,2.188H338.211z
		 M335.426,231.643c-1.536-0.045-2.76-1.304-2.76-2.843c0-1.569,1.273-2.847,2.844-2.847s2.844,1.274,2.844,2.847
		c0,1.569-1.273,2.845-2.845,2.843C335.482,231.643,335.453,231.643,335.426,231.643z M320.183,231.643
		c-1.537-0.045-2.761-1.304-2.761-2.843c0-1.569,1.273-2.847,2.845-2.847c1.57,0,2.843,1.274,2.843,2.847
		c0,1.569-1.273,2.845-2.844,2.843C320.239,231.643,320.211,231.643,320.183,231.643z M335.51,224.023
		c-1.57,0-2.844-1.272-2.844-2.845c0-1.57,1.273-2.847,2.844-2.847s2.844,1.274,2.844,2.847
		C338.354,222.749,337.08,224.023,335.51,224.023z M320.267,224.023c-1.571,0-2.845-1.272-2.845-2.845
		c0-1.57,1.273-2.847,2.845-2.847c1.57,0,2.843,1.274,2.843,2.847C323.111,222.749,321.838,224.023,320.267,224.023z
		 M335.426,216.399c-1.536-0.045-2.76-1.303-2.76-2.842c0-1.57,1.273-2.844,2.844-2.844s2.844,1.271,2.844,2.844
		c0,1.565-1.273,2.844-2.845,2.842C335.482,216.399,335.453,216.399,335.426,216.399z M320.183,216.399
		c-1.537-0.045-2.761-1.303-2.761-2.842c0-1.57,1.273-2.844,2.845-2.844c1.57,0,2.843,1.271,2.843,2.844
		c0,1.565-1.273,2.844-2.844,2.842C320.239,216.399,320.211,216.399,320.183,216.399z"/>
</g>
<g>
	<g>
		<line fill="none" stroke="#020303" x1="328.239" y1="204.899" x2="328.239" y2="196.936"/>
		<g>
			<path fill="#020303" d="M328.239,190.899c1.054,2.84,2.852,6.363,4.756,8.547l-4.756-1.721l-4.755,1.721
				C325.388,197.264,327.186,193.739,328.239,190.899z"/>
		</g>
	</g>
</g>
<g>
	<g>
		<path fill="none" stroke="#020303" d="M204.076,201.298c10.432,11.593,53.035,20.259,104.083,20.259"/>
		<g>
			<path fill="#020303" d="M201.632,195.776c0.283,3.016,0.193,6.971-0.574,9.766l3.537-3.61l5.031-0.519
				C206.962,200.273,203.814,197.878,201.632,195.776z"/>
		</g>
	</g>
</g>
<g>
	<g>
		<path fill="none" stroke="#020303" d="M74.486,200.434c20.162,12.021,117.031,21.123,233.673,21.123"/>
		<g>
			<path fill="#020303" d="M70.63,195.776c1.098,2.824,2.09,6.652,2.113,9.551l2.418-4.438l4.697-1.867
				C76.986,198.646,73.302,197.202,70.63,195.776z"/>
		</g>
	</g>
</g>
<g>
	<g>
		<path fill="none" stroke="#020303" d="M453.489,201.298c-10.432,11.593-53.036,20.259-104.084,20.259"/>
		<g>
			<path fill="#020303" d="M455.931,195.776c-2.183,2.104-5.33,4.496-7.993,5.637l5.03,0.519l3.537,3.608
				C455.739,202.747,455.647,198.792,455.931,195.776z"/>
		</g>
	</g>
</g>
<g>
	<g>
		<path fill="none" stroke="#020303" d="M583.078,200.434c-20.162,12.021-117.031,21.123-233.673,21.123"/>
		<g>
			<path fill="#020303" d="M586.932,195.776c-2.673,1.426-6.355,2.869-9.229,3.24l4.7,1.867l2.416,4.438
				C584.843,202.429,585.835,198.602,586.932,195.776z"/>
		</g>
	</g>
</g>
<path opacity="0.5" enable-background="new    " d="M350.921,358.365c-0.28,1.236-0.966,2.516-1.346,3.827
	c-0.289,0.021-0.486-0.472-0.775-0.621c-0.899,0.722-1.648,1.595-2.432,2.431c0.765,0.888,1.381,2.447,1.448,3.777
	c0.191,3.704-2.778,6.848-6.622,6.776c-3.515-0.063-6.577-2.978-6.312-6.933c0.214-3.195,2.678-5.752,5.896-6
	c2.09-0.162,3.408,0.513,4.604,1.448c0.832-0.788,1.643-1.599,2.432-2.432c-0.114-0.374-0.686-0.547-0.672-0.879
	C348.442,359.334,349.665,358.832,350.921,358.365z M337.679,364.416c-0.847,0.848-1.505,2.146-1.5,3.674
	c0.008,2.695,1.867,4.519,3.982,5.018c3.641,0.857,6.721-2.174,6.313-5.691c-0.109-0.943-0.776-2.328-1.448-3
	c-0.788-0.787-2.251-1.633-4.139-1.448C339.411,363.112,338.381,363.715,337.679,364.416z"/>
<g opacity="0.5">
	<path d="M251.625,402.93c3.742-0.26,6.428,1.893,7.725,4.268c0.665,1.219,1.072,2.738,0.973,4.592
		c-0.169,3.164-2.09,5.556-4.322,6.754c-2.783,1.494-6.354,1.099-8.643-0.486c-2.094-1.449-3.86-3.867-3.62-7.455
		c0.149-2.225,1.277-4.141,2.431-5.294C247.33,404.147,249.112,403.104,251.625,402.93z M247.087,406.279
		c-1.102,1.111-2.032,2.78-1.999,5.024c0.031,2.082,1.05,3.899,2.106,4.915c1.138,1.094,2.865,1.949,4.862,1.945
		c3.74-0.009,6.676-2.871,6.915-6.43c0.128-1.919-0.659-3.871-1.621-5.023c-1.285-1.541-3.357-2.676-6.159-2.377
		C249.333,404.533,248.002,405.357,247.087,406.279z"/>
	<path d="M251.681,409.143c2.744-0.448,3.373,3.689,0.81,4.159C249.633,413.826,248.995,409.582,251.681,409.143z"/>
</g>
<path opacity="0.5" enable-background="new    " d="M137.125,372.551c1.704,0,3.408,0,5.112,0c0-4.721,0-9.44,0-14.161
	c0.49,0,0.979,0,1.469,0c-0.038,4.778,0.052,9.428,0.059,14.161c1.136,0,2.272,0,3.408,0c0,0.488,0,0.979,0,1.469
	c-1.136,0-2.272,0-3.408,0c0,0.881,0,1.764,0,2.645c-0.509,0-1.018,0-1.527,0c0-0.881,0-1.764,0-2.645c-3.232,0-6.463,0-9.695,0
	c2.644-1.744,6.94-4.494,7.286-8.99c0.197-2.563-0.873-5.184-3.408-5.171c-1.597,0.009-2.905,0.997-2.879,2.526
	c-0.392,0.26-0.953,0.646-1.41,0.646c-0.852-3.573,3.752-5.813,6.64-4.054c1.437,0.876,2.376,2.688,2.526,4.643
	C141.607,367.662,139.096,370.727,137.125,372.551z"/>
<g opacity="0.5">
	<g id="XMLID_2_">
		<g>
			<path d="M139.082,551.811c4.96-0.43,8.533,3.045,8.863,7.377c0.38,4.928-2.773,7.824-7.056,8.707c0,1.049,0,2.096,0,3.137
				c1.675,0.185,3.689,0.031,5.488,0.082c0,0.652,0,1.306,0,1.955c-1.799,0-3.606,0-5.414,0c-0.181,0.949-0.024,2.23-0.074,3.301
				c-0.652,0-1.304,0-1.964,0c0-1.067,0-2.145,0-3.219c-1.643-0.18-3.631-0.021-5.414-0.082c0-0.652,0-1.303,0-1.955
				c1.808,0,3.615,0,5.414,0c0-1.049,0-2.096,0-3.137c-4.102-0.949-7.13-3.605-7.139-8.08
				C131.787,555.522,134.923,552.182,139.082,551.811z M139.322,553.854c-0.867,0.084-1.551,0.24-2.039,0.472
				c-1.634,0.752-3.177,2.45-3.458,4.622c-0.471,3.755,2.187,6.609,5.1,6.98c3.499,0.443,7.196-1.893,7.064-6.271
				C145.883,556.217,142.985,553.483,139.322,553.854z"/>
		</g>
	</g>
</g>
<path opacity="0.5" enable-background="new    " d="M342.022,551.687c0.146,0.422,0.028,1.108,0.066,1.642c-0.569,0-1.139,0-1.707,0
	c-0.153,2.67-0.021,5.625-0.066,8.403c1.709-0.688,2.85-1.808,5.318-1.576c2.415,0.227,4.679,2.852,4.136,5.58
	c-0.238,1.191-0.936,2.361-1.51,3.414c-0.565,1.035-1.455,2.115-1.707,3.149c-0.22,0.901,0.042,1.912,0.656,2.362
	c-0.29,0.479-0.642,0.893-0.919,1.377c-1.351-0.888-1.79-2.841-1.183-4.527c0.743-2.063,2.729-4.061,3.021-6.104
	c0.243-1.709-1.133-3.451-2.626-3.606c-2.055-0.226-3.959,1.188-5.188,2.1c0,2.736,0,5.473,0,8.207c-0.546,0-1.094,0-1.641,0
	c0-6.26,0-12.518,0-18.777c-0.591,0-1.183,0-1.772,0c0.043-0.521-0.086-1.223,0.065-1.641
	C338.652,551.687,340.337,551.687,342.022,551.687z"/>
<g transform="translate(0,0)">
	<path fill="#010202" d="M99.688,363.47c-4.75,0.653-6.334,6.292-5.297,10.034c1.324,4.771-4.462,5.203-3.199-2.375
		c-1.675,2.732-2.144,5.16-1.807,7.207c0.001,0.007,0.003,0.012,0.003,0.019c0.376,2.015,1.436,3.58,2.875,4.722
		c0.924,0.734,2.008,1.287,3.161,1.646c-3.689-8.95,9.477-8.913,5.526,0.238c1.284-0.297,2.465-0.853,3.412-1.666
		c1.261-1.084,2.138-2.617,2.324-4.705c0.088-1.51-0.145-3.283-0.794-5.34c-1.65,6.404-5.263,4.875-1.933-3.271
		C98.046,375.115,97.293,368.905,99.688,363.47L99.688,363.47z M107.74,379.387c-0.065,0.393-0.153,0.769-0.262,1.13
		c0.909,0.336,1.632,0.719,2.121,1.106c0.556,0.44,0.771,0.838,0.771,1.188s-0.215,0.751-0.771,1.19
		c-0.557,0.441-1.424,0.879-2.52,1.246c-2.192,0.734-5.291,1.205-8.713,1.205c-3.421,0-6.518-0.471-8.709-1.205
		c-1.097-0.367-1.963-0.805-2.52-1.246c-0.556-0.438-0.771-0.84-0.771-1.19s0.215-0.748,0.771-1.188
		c0.425-0.338,1.03-0.67,1.782-0.974c-0.158-0.345-0.297-0.703-0.413-1.078c-0.831,0.332-1.534,0.712-2.085,1.149
		c-0.663,0.525-1.13,1.17-1.197,1.91h-0.01v0.576c0,2.767,1.529,5.25,3.915,7.01c2.386,1.757,5.64,2.822,9.222,2.822
		c3.581,0,6.835-1.065,9.221-2.822c2.386-1.76,3.915-4.243,3.915-7.01h-0.004c0.025-0.127,0.041-0.261,0.041-0.396
		c0-0.813-0.49-1.522-1.207-2.091C109.659,380.201,108.788,379.762,107.74,379.387L107.74,379.387z"/>
</g>
<g transform="translate(0,0)">
	<path fill="#010202" d="M96.346,404.718l-0.172,0.472c0,0-1.356,3.705-3.316,7.244c-1.986,3.584-2.138,3.516-4.579,6.997
		c-1.675,2.39-3.534,5.048-3.534,8.487c0,6.686,5.425,12.164,12.104,12.164s12.104-5.479,12.103-12.164
		c0-3.432-1.866-6.103-3.533-8.486c-2.457-3.516-2.675-3.537-4.661-7.12c-1.959-3.538-3.233-7.116-3.233-7.116l-0.169-0.479
		L96.346,404.718L96.346,404.718z M97.463,408.861c0.533,1.217,1.212,2.655,2.038,4.146c0.187,0.337,0.354,0.636,0.515,0.916
		c-0.673-0.422-1.323-0.545-1.801-0.27c-0.99,0.572-0.871,2.635,0.268,4.606c1.139,1.972,2.864,3.106,3.855,2.534
		c0.614-0.354,0.801-1.28,0.584-2.402c0.369,0.514,0.787,1.1,1.319,1.861c0.288,0.41,0.573,0.824,0.85,1.236l-2.502,2.2
		l-7.446-3.696L97.463,408.861L97.463,408.861z M95.809,409.764l-1.872,8.973c-0.155-0.242-0.366-0.38-0.632-0.386
		c-1.038-0.022-2.505,1.976-3.275,4.465c-0.77,2.49-0.551,4.527,0.487,4.552c0.277,0.006,0.586-0.134,0.903-0.388l-0.61,1.925
		l-4.574-1.914c0.293-2.5,1.728-4.609,3.218-6.734c2.42-3.451,2.654-3.506,4.659-7.125C94.764,411.957,95.33,410.805,95.809,409.764
		L95.809,409.764z M94.701,421.381l3.156,1.565c-1.835,0.374-3.217,1.997-3.217,3.943c0,2.222,1.801,4.024,4.023,4.024
		c1.16,0,2.204-0.492,2.938-1.275l-0.274,2.529l-5.845,1.705l-3.407-4.201L94.701,421.381L94.701,421.381z M105.867,422.722
		c0.322,0.544,0.617,1.097,0.863,1.665c-0.078-0.016-0.156-0.023-0.236-0.023c-1.101,0-1.993,1.448-1.993,3.232
		c0,1.783,0.892,3.232,1.993,3.232c0.236,0,0.464-0.067,0.674-0.19c-0.289,1.106-0.748,2.146-1.35,3.084l-3.06-1.425l0.821-7.562
		L105.867,422.722L105.867,422.722z M86.199,428.533l3.794,1.586c-0.731,0.295-1.248,1.012-1.248,1.849
		c0,1.101,0.893,1.995,1.994,1.995c0.87,0,1.61-0.56,1.881-1.336l1.662,2.05l-0.664,3.467
		C89.491,436.824,86.453,433.043,86.199,428.533z M103.057,434.02l1.887,0.878c-1.956,2.292-4.856,3.748-8.096,3.748
		c-0.625,0-1.237-0.056-1.833-0.159l0.605-3.158l2.334-0.681c-0.479,0.376-0.789,0.772-0.827,1.12
		c-0.084,0.764,1.175,0.988,2.813,0.506C101.574,435.791,102.966,434.783,103.057,434.02L103.057,434.02z"/>
</g>
<g transform="translate(0,0)">
	<path d="M99.179,452.138c-1.11,0-2.01,0.899-2.01,2.011s0.9,2.012,2.01,2.012c1.11,0,2.01-0.899,2.01-2.012
		C101.188,453.039,100.289,452.138,99.179,452.138L99.179,452.138z M98.999,452.744c-0.128,0.059-0.234,0.149-0.339,0.254
		c-0.463,0.463-0.478,1.217-0.014,1.682c0.463,0.462,1.231,0.462,1.694,0c0.111-0.111,0.182-0.246,0.24-0.383
		c-0.034,0.309-0.16,0.613-0.395,0.848c-0.552,0.552-1.44,0.538-1.991-0.014l0,0c-0.551-0.553-0.565-1.438-0.014-1.99
		C98.406,452.914,98.705,452.785,98.999,452.744L98.999,452.744z M93.211,452.893c-1.553,0-2.813,1.259-2.813,2.813
		s1.259,2.813,2.813,2.813c0.21,0,0.414-0.024,0.611-0.065c0.083,1.032,0.948,1.846,2.003,1.846c1.11,0,2.01-0.899,2.01-2.01
		c0-1.063-0.825-1.935-1.871-2.006c0.039-0.187,0.059-0.38,0.059-0.576C96.024,454.151,94.766,452.893,93.211,452.893
		L93.211,452.893z M92.792,453.924c-0.174,0.078-0.32,0.203-0.462,0.347c-0.631,0.631-0.65,1.66-0.02,2.29
		c0.631,0.631,1.678,0.631,2.31,0c0.151-0.15,0.249-0.334,0.327-0.52c-0.046,0.42-0.218,0.834-0.539,1.154
		c-0.751,0.752-1.962,0.732-2.713-0.02l0,0c-0.751-0.752-0.771-1.963-0.019-2.715C91.983,454.155,92.391,453.979,92.792,453.924
		L92.792,453.924z M102.849,456.354c-2.095,0-3.793,1.698-3.793,3.794c0,2.095,1.698,3.792,3.793,3.792
		c2.095,0,3.793-1.697,3.793-3.792C106.642,458.052,104.943,456.354,102.849,456.354z M95.603,457.117
		c-0.12,0.053-0.221,0.141-0.32,0.238c-0.437,0.438-0.449,1.146-0.014,1.584c0.437,0.438,1.161,0.438,1.598,0
		c0.104-0.104,0.171-0.23,0.226-0.359c-0.032,0.291-0.15,0.576-0.373,0.799c-0.52,0.52-1.357,0.507-1.876-0.014
		c-0.519-0.52-0.534-1.356-0.014-1.877C95.042,457.275,95.325,457.154,95.603,457.117L95.603,457.117z M102.415,457.291
		c-0.254,0.115-0.467,0.299-0.676,0.508c-0.923,0.924-0.951,2.428-0.028,3.351c0.923,0.925,2.456,0.925,3.378,0
		c0.221-0.221,0.363-0.489,0.479-0.761c-0.068,0.613-0.318,1.22-0.788,1.689c-1.099,1.1-2.871,1.07-3.97-0.027
		c-1.099-1.1-1.127-2.871-0.028-3.971C101.232,457.629,101.828,457.373,102.415,457.291L102.415,457.291z M96.171,461.713
		c-1.55,0-2.807,1.258-2.807,2.808s1.257,2.808,2.807,2.808c1.551,0,2.807-1.258,2.807-2.808S97.723,461.713,96.171,461.713
		L96.171,461.713z M95.942,462.48c-0.183,0.081-0.337,0.215-0.488,0.365c-0.667,0.667-0.687,1.753-0.02,2.419
		c0.667,0.667,1.772,0.667,2.439,0c0.16-0.159,0.262-0.353,0.346-0.55c-0.049,0.443-0.23,0.882-0.569,1.221
		c-0.793,0.794-2.073,0.773-2.866-0.02l0,0c-0.793-0.795-0.814-2.073-0.02-2.866C95.09,462.725,95.519,462.539,95.942,462.48
		L95.942,462.48z M101.29,466.904c-0.919,0-1.694,0.616-1.933,1.459c-0.326-0.007-0.653-0.012-0.984-0.012
		c-4.167,0-7.938,0.511-10.718,1.359c-1.39,0.424-2.533,0.929-3.373,1.533c-0.938,0.836-1.665,1.588-1.354,2.789
		c0.356,2.366,2.092,4.438,4.593,5.94c2.815,1.69,6.639,2.708,10.852,2.708s8.037-1.018,10.852-2.708
		c2.5-1.5,4.235-3.572,4.593-5.938c0.046-0.291,0.096-0.631,0.033-0.908c-0.139-0.732-0.668-1.363-1.386-1.883
		c-0.84-0.604-1.983-1.109-3.373-1.533c-1.635-0.5-3.615-0.881-5.814-1.11C103.125,467.639,102.293,466.904,101.29,466.904
		L101.29,466.904z M101.208,467.658c-0.12,0.053-0.22,0.141-0.319,0.238c-0.436,0.438-0.45,1.146-0.013,1.584
		c0.437,0.436,1.161,0.436,1.597,0c0.104-0.104,0.172-0.23,0.227-0.359c-0.032,0.291-0.151,0.576-0.373,0.799
		c-0.519,0.52-1.356,0.508-1.876-0.014c-0.52-0.52-0.533-1.356-0.013-1.877C100.648,467.817,100.931,467.695,101.208,467.658
		L101.208,467.658z M98.372,469.566c0.344,0,0.683,0.005,1.02,0.014c0.275,0.782,1.02,1.344,1.897,1.344
		c0.791,0,1.474-0.454,1.803-1.118c2.161,0.224,4.091,0.594,5.644,1.067c1.308,0.398,2.347,0.875,3.017,1.357
		c0.603,0.434,0.864,0.83,0.911,1.167c-0.007,0.126-0.019,0.25-0.035,0.374c-0.096,0.303-0.362,0.645-0.876,1.016
		c-0.156,0.112-0.333,0.226-0.529,0.336c-3.933-4.391-20.77-4.644-25.8-0.057c-0.157-0.092-0.302-0.186-0.432-0.279
		c-0.515-0.371-0.781-0.715-0.877-1.018c-0.016-0.123-0.027-0.246-0.034-0.37c0.046-0.337,0.308-0.733,0.911-1.169
		c0.669-0.482,1.709-0.959,3.017-1.357C90.624,470.074,94.306,469.566,98.372,469.566L98.372,469.566z M85.175,476.32
		c0.7,0.37,1.532,0.696,2.479,0.986c2.78,0.848,6.552,1.357,10.718,1.357s7.938-0.511,10.718-1.357
		c0.947-0.29,1.778-0.616,2.479-0.986c-0.695,0.965-1.7,1.852-2.97,2.613c-2.581,1.55-6.211,2.535-10.227,2.535
		c-4.015,0-7.645-0.985-10.227-2.535C86.875,478.172,85.87,477.285,85.175,476.32L85.175,476.32z"/>
</g>
<g transform="translate(0,0)">
	<path fill="#010202" d="M101.665,500.693l-18.68,9.957l-2.947,7.875l0.518,0.275l11.006,5.857l22.094-11.761l-2.703-7.155
		L101.665,500.693L101.665,500.693z M110.19,507.512l1.798,4.76l-7.345,3.909l4.767-8.257L110.19,507.512L110.19,507.512z
		 M103.774,510.906l-4.78,8.28l-2.985,1.59l5.17-8.496L103.774,510.906L103.774,510.906z M83.77,512.375l2.02,1.069l-3.868,3.868
		L83.77,512.375z M98.87,513.504l-5.158,8.475l0.019,0.012l-1.233,0.656l0.416-5.988L98.87,513.504L98.87,513.504z M87.029,514.101
		l1.214,0.644l-4.329,4.328l-1.212-0.646L87.029,514.101L87.029,514.101z M91.58,516.537l-0.442,6.379l-3.875-2.063L91.58,516.537z"
		/>
</g>
<g transform="translate(0,0)">
	<path fill="#010202" d="M93.024,541.276l-1.09,1.455l1.09,1.455l1.091-1.455L93.024,541.276z M106.151,541.764l-1.43,1.906
		l1.43,1.903l1.427-1.903L106.151,541.764z M97.806,542.948l-1.427,1.906l1.427,1.904l1.43-1.904L97.806,542.948L97.806,542.948z
		 M85.573,543.164l-1.089,1.455l1.089,1.457l1.091-1.457L85.573,543.164L85.573,543.164z M110.63,544.756l-0.871,1.885l-1.886,0.871
		l1.886,0.906l0.871,1.848l0.868-1.883l1.886-0.871l-1.85-0.871L110.63,544.756L110.63,544.756z M91.358,545.603l-1.093,2.369
		l-2.368,1.092l2.369,1.142l1.093,2.319l1.091-2.366l2.369-1.095l-2.323-1.092L91.358,545.603L91.358,545.603z M104.722,546.192
		l-1.43,1.906l1.43,1.907l1.427-1.907L104.722,546.192L104.722,546.192z M98.307,550.237l-1.186,1.582l1.186,1.582l1.185-1.582
		L98.307,550.237z M104.906,552.228l-0.896,1.944l-1.946,0.896l1.946,0.938l0.896,1.905l0.899-1.94l1.946-0.9l-1.908-0.895
		L104.906,552.228L104.906,552.228z M87.583,552.674l-1.091,1.455l1.091,1.45l1.09-1.45L87.583,552.674L87.583,552.674z
		 M93.613,554.408l-1.089,1.454l1.089,1.455l1.091-1.455L93.613,554.408L93.613,554.408z M98.268,555.948
		c-0.492,0.009-0.916,0.279-1.389,0.646c-2.949,2.271-6.684,5.573-6.729,7.42c-0.528,0.063-0.997,0.336-0.997,0.819
		c0,0.722,0.986,0.979,1.706,0.782c-0.009,0.045-0.014,0.093-0.014,0.143c0,1.025,2.012,1.116,2.386,0.284
		c2.217,0.593,4.935,0.689,7.419,0.396c0.151,0.957,2.175,0.974,2.415,0.065c0.657,0.479,1.853,0.511,2.577,0.089
		c0.684,0.434,2.077,0.221,2.077-0.63c0-0.127-0.03-0.235-0.084-0.334c0.375-0.163,0.644-0.448,0.644-0.856
		c0-0.918-1.354-1.198-2.224-0.871c-0.292-1.996-3.825-5.43-6.463-7.411C99.073,556.098,98.65,555.944,98.268,555.948
		L98.268,555.948z M87.026,563.149c-0.689,0.002-1.377,0.322-1.377,0.955c0,1.269,2.755,1.244,2.755,0
		C88.405,563.467,87.715,563.149,87.026,563.149L87.026,563.149z M112.04,563.985c-0.612,0.002-1.224,0.283-1.224,0.834
		c0,1.139,2.447,1.125,2.447,0C113.263,564.258,112.65,563.981,112.04,563.985z M84.573,564.992
		c-0.612,0.002-1.224,0.284-1.224,0.849c0,1.128,2.447,1.104,2.447,0C85.794,565.271,85.184,564.992,84.573,564.992z
		 M110.949,566.498c-0.688,0.003-1.377,0.321-1.377,0.955c0,1.27,2.753,1.241,2.753,0
		C112.324,566.813,111.637,566.496,110.949,566.498L110.949,566.498z M93.405,566.922c-0.384,0-0.769,0.108-1.001,0.336
		c-0.72-0.314-1.914-0.07-1.914,0.717c0,0.916,1.622,1.07,2.224,0.5c0.72,0.307,1.914,0.063,1.914-0.707
		C94.627,567.198,94.017,566.92,93.405,566.922L93.405,566.922z M98.993,567.022c-0.611,0.002-1.223,0.283-1.223,0.834
		c0,1.138,2.447,1.127,2.447,0C100.216,567.295,99.604,567.02,98.993,567.022z M86.691,567.623c-0.611,0.005-1.222,0.285-1.222,0.85
		c0,1.127,2.446,1.104,2.446,0C87.916,567.901,87.304,567.621,86.691,567.623z M105.814,568.469
		c-0.612,0.002-1.223,0.285-1.223,0.836c0,0.633,0.758,0.91,1.431,0.838c-0.046,0.1-0.07,0.209-0.07,0.332
		c0,1.205,2.34,1.313,2.803,0.354c0.661,0.058,1.385-0.229,1.385-0.842c0-0.938-1.717-1.08-2.274-0.451
		c-0.277-0.059-0.581-0.063-0.862-0.012c0.022-0.068,0.034-0.141,0.034-0.219C107.039,568.742,106.428,568.467,105.814,568.469
		L105.814,568.469z M96.147,568.692c-0.701,0.002-1.402,0.326-1.402,0.959c0,1.302,2.805,1.289,2.805,0
		C97.551,569.006,96.849,568.688,96.147,568.692L96.147,568.692z M102.592,569.826c-0.804,0.002-1.607,0.375-1.607,1.114
		c0,1.479,3.215,1.451,3.215,0C104.2,570.194,103.396,569.823,102.592,569.826L102.592,569.826z M92.79,570.256
		c-0.702,0.004-1.403,0.321-1.403,0.959c0,1.303,2.804,1.291,2.804,0C94.19,570.569,93.492,570.252,92.79,570.256L92.79,570.256z"/>
</g>
<g transform="translate(0,0)">
	<path fill="#010202" d="M154.463,316.236c-4.749,0.653-6.334,6.292-5.297,10.035c1.324,4.771-4.462,5.202-3.199-2.375
		c-1.675,2.732-2.144,5.16-1.807,7.207c0.002,0.006,0.003,0.012,0.004,0.018c0.376,2.016,1.436,3.58,2.875,4.723
		c0.924,0.734,2.008,1.287,3.16,1.646c-3.689-8.951,9.478-8.914,5.526,0.238c1.284-0.298,2.465-0.854,3.412-1.666
		c1.261-1.084,2.138-2.618,2.324-4.706c0.088-1.51-0.145-3.282-0.794-5.339c-1.65,6.404-5.263,4.875-1.934-3.271
		C152.823,327.881,152.071,321.672,154.463,316.236L154.463,316.236z M162.516,332.153c-0.065,0.394-0.153,0.769-0.263,1.13
		c0.909,0.336,1.633,0.719,2.121,1.106c0.556,0.44,0.771,0.839,0.771,1.188c0,0.352-0.215,0.752-0.771,1.191
		c-0.558,0.441-1.424,0.878-2.52,1.245c-2.192,0.735-5.291,1.205-8.713,1.205c-3.421,0-6.518-0.47-8.71-1.205
		c-1.097-0.367-1.963-0.804-2.52-1.245c-0.557-0.439-0.771-0.84-0.771-1.191c0-0.35,0.215-0.748,0.771-1.188
		c0.425-0.337,1.03-0.67,1.781-0.974c-0.158-0.345-0.297-0.703-0.413-1.078c-0.831,0.332-1.534,0.713-2.085,1.149
		c-0.663,0.525-1.131,1.171-1.197,1.91h-0.01v0.577c0,2.766,1.529,5.25,3.915,7.009c2.386,1.757,5.64,2.823,9.222,2.823
		c3.581,0,6.835-1.066,9.221-2.823c2.386-1.759,3.916-4.243,3.916-7.009h-0.005c0.025-0.128,0.041-0.262,0.041-0.396
		c0-0.813-0.489-1.522-1.207-2.091C164.435,332.968,163.563,332.528,162.516,332.153L162.516,332.153z"/>
</g>
<g transform="translate(0,0)">
	<path fill="#010202" d="M196.786,314.858l-0.172,0.472c0,0-1.356,3.705-3.316,7.244c-1.986,3.584-2.138,3.516-4.579,6.997
		c-1.675,2.39-3.534,5.048-3.534,8.488c0,6.685,5.425,12.163,12.104,12.163s12.104-5.479,12.103-12.163
		c0-3.433-1.866-6.103-3.533-8.487c-2.457-3.516-2.675-3.537-4.661-7.119c-1.959-3.539-3.233-7.117-3.233-7.117l-0.169-0.479
		L196.786,314.858L196.786,314.858z M197.904,319.002c0.533,1.217,1.212,2.656,2.038,4.146c0.187,0.337,0.354,0.637,0.515,0.917
		c-0.673-0.422-1.323-0.545-1.801-0.269c-0.99,0.572-0.871,2.635,0.268,4.605c1.139,1.973,2.864,3.106,3.855,2.535
		c0.614-0.354,0.801-1.281,0.584-2.402c0.369,0.514,0.787,1.099,1.319,1.86c0.288,0.411,0.573,0.824,0.85,1.237l-2.502,2.199
		l-7.446-3.695L197.904,319.002L197.904,319.002z M196.248,319.904l-1.872,8.973c-0.155-0.242-0.366-0.379-0.632-0.385
		c-1.038-0.023-2.505,1.976-3.275,4.465s-0.551,4.526,0.487,4.551c0.277,0.006,0.586-0.133,0.903-0.387l-0.61,1.924l-4.574-1.914
		c0.293-2.5,1.728-4.608,3.218-6.733c2.42-3.452,2.654-3.506,4.659-7.126C195.204,322.098,195.769,320.945,196.248,319.904
		L196.248,319.904z M195.141,331.521l3.156,1.566c-1.835,0.373-3.217,1.996-3.217,3.942c0,2.222,1.801,4.024,4.023,4.024
		c1.16,0,2.204-0.491,2.938-1.275l-0.274,2.529l-5.845,1.705l-3.407-4.201L195.141,331.521L195.141,331.521z M206.307,332.862
		c0.322,0.544,0.617,1.097,0.863,1.665c-0.078-0.015-0.156-0.023-0.236-0.023c-1.101,0-1.993,1.449-1.993,3.232
		c0,1.784,0.892,3.232,1.993,3.232c0.236,0,0.464-0.067,0.674-0.19c-0.289,1.107-0.748,2.146-1.35,3.084l-3.06-1.425l0.821-7.561
		L206.307,332.862L206.307,332.862z M186.639,338.674l3.794,1.587c-0.731,0.295-1.248,1.011-1.248,1.848
		c0,1.101,0.893,1.995,1.994,1.995c0.87,0,1.61-0.559,1.881-1.336l1.662,2.05l-0.664,3.468
		C189.931,346.965,186.893,343.186,186.639,338.674z M203.497,344.162l1.887,0.877c-1.956,2.293-4.856,3.748-8.096,3.748
		c-0.625,0-1.237-0.055-1.833-0.158l0.605-3.158l2.334-0.682c-0.479,0.377-0.789,0.773-0.827,1.121
		c-0.084,0.764,1.175,0.988,2.813,0.506C202.014,345.932,203.406,344.924,203.497,344.162L203.497,344.162z"/>
</g>
<g transform="translate(0,0)">
	<path d="M243.109,315.748c-1.11,0-2.01,0.9-2.01,2.012s0.9,2.011,2.01,2.011c1.11,0,2.01-0.899,2.01-2.011
		C245.121,316.649,244.221,315.748,243.109,315.748L243.109,315.748z M242.931,316.355c-0.128,0.059-0.234,0.148-0.339,0.254
		c-0.463,0.463-0.478,1.217-0.014,1.682c0.463,0.461,1.231,0.461,1.694,0c0.111-0.111,0.182-0.246,0.24-0.383
		c-0.034,0.309-0.16,0.612-0.395,0.848c-0.552,0.552-1.44,0.537-1.991-0.014l0,0c-0.551-0.553-0.565-1.438-0.014-1.99
		C242.337,316.525,242.637,316.396,242.931,316.355L242.931,316.355z M237.144,316.504c-1.553,0-2.813,1.259-2.813,2.813
		c0,1.553,1.259,2.813,2.813,2.813c0.21,0,0.414-0.023,0.611-0.065c0.083,1.033,0.948,1.847,2.003,1.847
		c1.11,0,2.01-0.899,2.01-2.011c0-1.063-0.825-1.935-1.871-2.005c0.039-0.188,0.059-0.38,0.059-0.577
		C239.956,317.763,238.698,316.504,237.144,316.504L237.144,316.504z M236.724,317.535c-0.174,0.078-0.32,0.205-0.462,0.348
		c-0.631,0.631-0.65,1.66-0.02,2.289c0.631,0.632,1.678,0.632,2.31,0c0.151-0.149,0.249-0.334,0.327-0.519
		c-0.046,0.419-0.218,0.834-0.539,1.154c-0.751,0.752-1.962,0.731-2.713-0.021l0,0c-0.751-0.75-0.771-1.961-0.019-2.713
		C235.915,317.767,236.323,317.59,236.724,317.535L236.724,317.535z M246.781,319.965c-2.095,0-3.793,1.697-3.793,3.794
		c0,2.094,1.698,3.792,3.793,3.792c2.095,0,3.793-1.698,3.793-3.792C250.574,321.664,248.875,319.965,246.781,319.965z
		 M239.535,320.728c-0.12,0.054-0.221,0.142-0.32,0.239c-0.437,0.437-0.449,1.146-0.014,1.584c0.437,0.437,1.161,0.437,1.598,0
		c0.104-0.104,0.171-0.23,0.226-0.359c-0.032,0.29-0.15,0.576-0.373,0.799c-0.52,0.521-1.357,0.506-1.876-0.014
		s-0.534-1.357-0.014-1.877C238.975,320.887,239.257,320.766,239.535,320.728L239.535,320.728z M246.347,320.903
		c-0.254,0.115-0.467,0.298-0.676,0.509c-0.923,0.922-0.951,2.426-0.028,3.35s2.456,0.924,3.378,0
		c0.221-0.221,0.363-0.489,0.479-0.762c-0.068,0.613-0.318,1.221-0.788,1.689c-1.099,1.1-2.871,1.071-3.97-0.027
		c-1.099-1.1-1.127-2.871-0.028-3.97C245.164,321.242,245.76,320.985,246.347,320.903L246.347,320.903z M240.103,325.326
		c-1.55,0-2.807,1.256-2.807,2.807c0,1.55,1.257,2.807,2.807,2.807c1.551,0,2.807-1.257,2.807-2.807
		C242.91,326.582,241.654,325.326,240.103,325.326L240.103,325.326z M239.875,326.092c-0.183,0.08-0.337,0.215-0.488,0.365
		c-0.667,0.666-0.687,1.752-0.02,2.418c0.667,0.668,1.772,0.668,2.439,0c0.16-0.158,0.262-0.353,0.346-0.549
		c-0.049,0.442-0.23,0.881-0.569,1.221c-0.793,0.793-2.073,0.772-2.866-0.021l0,0c-0.793-0.794-0.814-2.073-0.02-2.866
		C239.021,326.336,239.451,326.149,239.875,326.092L239.875,326.092z M245.222,330.516c-0.919,0-1.694,0.615-1.933,1.459
		c-0.326-0.007-0.653-0.012-0.984-0.012c-4.167,0-7.938,0.511-10.718,1.358c-1.39,0.425-2.533,0.929-3.373,1.534
		c-0.938,0.836-1.665,1.588-1.354,2.788c0.356,2.367,2.092,4.438,4.593,5.94c2.815,1.69,6.639,2.709,10.852,2.709
		s8.037-1.019,10.852-2.709c2.5-1.5,4.235-3.571,4.593-5.938c0.046-0.292,0.096-0.631,0.033-0.909
		c-0.139-0.731-0.668-1.362-1.386-1.882c-0.84-0.605-1.983-1.109-3.373-1.534c-1.635-0.499-3.615-0.88-5.814-1.11
		C247.058,331.25,246.226,330.516,245.222,330.516L245.222,330.516z M245.14,331.269c-0.12,0.054-0.22,0.142-0.319,0.239
		c-0.436,0.437-0.45,1.146-0.013,1.584c0.437,0.436,1.161,0.436,1.597,0c0.104-0.104,0.172-0.231,0.227-0.359
		c-0.032,0.29-0.151,0.576-0.373,0.798c-0.519,0.521-1.356,0.509-1.876-0.013c-0.52-0.52-0.533-1.357-0.013-1.877
		C244.581,331.429,244.863,331.307,245.14,331.269L245.14,331.269z M242.304,333.178c0.344,0,0.683,0.005,1.02,0.013
		c0.275,0.783,1.02,1.345,1.897,1.345c0.791,0,1.474-0.455,1.803-1.119c2.161,0.225,4.091,0.595,5.644,1.068
		c1.308,0.398,2.347,0.875,3.017,1.357c0.603,0.434,0.864,0.83,0.911,1.167c-0.007,0.126-0.019,0.25-0.035,0.374
		c-0.096,0.303-0.362,0.645-0.876,1.015c-0.156,0.113-0.333,0.226-0.529,0.337c-3.933-4.391-20.77-4.645-25.8-0.057
		c-0.157-0.092-0.302-0.186-0.432-0.279c-0.515-0.372-0.781-0.715-0.877-1.018c-0.016-0.123-0.027-0.246-0.034-0.37
		c0.046-0.337,0.308-0.733,0.911-1.169c0.669-0.483,1.709-0.959,3.017-1.357C234.556,333.686,238.238,333.178,242.304,333.178
		L242.304,333.178z M229.106,339.932c0.7,0.37,1.532,0.695,2.479,0.986c2.78,0.848,6.552,1.357,10.718,1.357
		s7.938-0.511,10.718-1.357c0.947-0.291,1.778-0.616,2.479-0.986c-0.695,0.965-1.7,1.852-2.97,2.613
		c-2.581,1.55-6.211,2.535-10.227,2.535c-4.015,0-7.645-0.985-10.227-2.535C230.807,341.783,229.802,340.896,229.106,339.932
		L229.106,339.932z"/>
</g>
<g transform="translate(0,0)">
	<path fill="#010202" d="M292.383,320.558l-18.68,9.957l-2.947,7.875l0.518,0.274l11.006,5.859l22.094-11.761l-2.703-7.155
		L292.383,320.558L292.383,320.558z M300.909,327.375l1.799,4.76l-7.346,3.908l4.768-8.254L300.909,327.375L300.909,327.375z
		 M294.493,330.771l-4.779,8.281l-2.985,1.59l5.17-8.497L294.493,330.771L294.493,330.771z M274.488,332.238l2.02,1.07l-3.868,3.868
		L274.488,332.238z M289.586,333.367l-5.158,8.476l0.019,0.012l-1.233,0.656l0.416-5.99L289.586,333.367L289.586,333.367z
		 M277.746,333.963l1.214,0.644l-4.329,4.33l-1.212-0.646L277.746,333.963L277.746,333.963z M282.296,336.4l-0.442,6.379
		l-3.875-2.063L282.296,336.4z"/>
</g>
<g transform="translate(0,0)">
	<path fill="#010202" d="M326.279,315.566l-1.09,1.456l1.09,1.455l1.091-1.455L326.279,315.566z M339.405,316.054l-1.43,1.905
		l1.43,1.908l1.428-1.908L339.405,316.054z M331.059,317.238l-1.427,1.906l1.427,1.904l1.43-1.904L331.059,317.238L331.059,317.238z
		 M318.827,317.455l-1.089,1.455l1.089,1.455l1.092-1.455L318.827,317.455L318.827,317.455z M343.884,319.045l-0.871,1.885
		l-1.886,0.871l1.886,0.906l0.871,1.849l0.868-1.884l1.886-0.871l-1.851-0.871L343.884,319.045L343.884,319.045z M324.612,319.894
		l-1.093,2.368l-2.368,1.093l2.369,1.14l1.093,2.321l1.091-2.368l2.369-1.093l-2.322-1.093L324.612,319.894L324.612,319.894z
		 M337.975,320.483l-1.43,1.906l1.43,1.907l1.427-1.907L337.975,320.483L337.975,320.483z M331.56,324.527l-1.186,1.582l1.186,1.583
		l1.185-1.583L331.56,324.527z M338.16,326.518l-0.896,1.945l-1.946,0.896l1.946,0.936l0.896,1.91l0.899-1.945l1.946-0.899
		l-1.908-0.896L338.16,326.518L338.16,326.518z M320.835,326.963l-1.092,1.455l1.092,1.455l1.09-1.455L320.835,326.963
		L320.835,326.963z M326.867,328.697l-1.089,1.456l1.089,1.455l1.092-1.455L326.867,328.697L326.867,328.697z M331.521,330.24
		c-0.492,0.006-0.916,0.277-1.389,0.643c-2.949,2.273-6.685,5.574-6.729,7.42c-0.527,0.063-0.997,0.337-0.997,0.82
		c0,0.721,0.986,0.979,1.706,0.785c-0.009,0.043-0.014,0.09-0.014,0.139c0,1.029,2.012,1.117,2.386,0.285
		c2.217,0.592,4.936,0.691,7.419,0.396c0.151,0.957,2.175,0.972,2.415,0.065c0.657,0.481,1.854,0.51,2.577,0.088
		c0.684,0.434,2.077,0.221,2.077-0.629c0-0.127-0.03-0.236-0.084-0.334c0.375-0.164,0.644-0.448,0.644-0.856
		c0-0.919-1.354-1.2-2.224-0.871c-0.292-1.997-3.825-5.43-6.463-7.412C332.327,330.388,331.904,330.234,331.521,330.24
		L331.521,330.24z M320.281,337.44c-0.688,0.002-1.377,0.321-1.377,0.955c0,1.267,2.755,1.243,2.755,0
		C321.658,337.756,320.969,337.439,320.281,337.44L320.281,337.44z M345.292,338.275c-0.612,0.003-1.225,0.283-1.225,0.835
		c0,1.136,2.447,1.125,2.447,0C346.517,338.547,345.905,338.272,345.292,338.275z M317.826,339.283
		c-0.611,0.002-1.224,0.283-1.224,0.846c0,1.127,2.447,1.104,2.447,0C319.049,339.562,318.437,339.281,317.826,339.283z
		 M344.202,340.789c-0.688,0-1.377,0.32-1.377,0.955c0,1.267,2.753,1.241,2.753,0C345.578,341.104,344.891,340.787,344.202,340.789
		L344.202,340.789z M326.659,341.211c-0.384,0-0.769,0.111-1.001,0.336c-0.72-0.313-1.914-0.069-1.914,0.717
		c0,0.916,1.622,1.07,2.225,0.5c0.72,0.308,1.914,0.064,1.914-0.706C327.882,341.49,327.27,341.209,326.659,341.211L326.659,341.211
		z M332.246,341.313c-0.611,0.003-1.224,0.283-1.224,0.835c0,1.136,2.447,1.126,2.447,0
		C333.47,341.584,332.857,341.31,332.246,341.313z M319.945,341.914c-0.61,0.002-1.222,0.283-1.222,0.847
		c0,1.126,2.446,1.104,2.446,0C321.168,342.192,320.557,341.912,319.945,341.914z M339.068,342.758
		c-0.611,0.003-1.223,0.285-1.223,0.837c0,0.633,0.758,0.909,1.431,0.837c-0.046,0.1-0.069,0.21-0.069,0.332
		c0,1.206,2.34,1.314,2.803,0.354c0.661,0.055,1.385-0.229,1.385-0.841c0-0.942-1.717-1.081-2.273-0.452
		c-0.277-0.059-0.581-0.062-0.862-0.012c0.021-0.068,0.034-0.141,0.034-0.219C340.292,343.033,339.681,342.756,339.068,342.758
		L339.068,342.758z M329.4,342.982c-0.701,0.002-1.401,0.326-1.401,0.959c0,1.303,2.805,1.29,2.805,0
		C330.805,343.295,330.102,342.979,329.4,342.982L329.4,342.982z M335.846,344.115c-0.804,0.002-1.607,0.375-1.607,1.115
		c0,1.479,3.215,1.451,3.215,0C337.454,344.484,336.649,344.113,335.846,344.115L335.846,344.115z M326.043,344.545
		c-0.702,0.004-1.403,0.326-1.403,0.959c0,1.303,2.804,1.291,2.804,0C327.445,344.859,326.746,344.541,326.043,344.545
		L326.043,344.545z"/>
</g>
<text transform="matrix(1 0 0 1 46.5513 278.2305)" font-family="'MyriadPro-Regular'" font-size="16">Domains:</text>
<text transform="matrix(1 0 0 1 17.7554 291.3945)" font-family="'MyriadPro-Regular'" font-size="19.2725" letter-spacing="38"> </text>
<text transform="matrix(1 0 0 1 61.1177 291.3945)" font-family="'MyriadPro-Regular'" font-size="9.6362">Jupiter</text>
<text transform="matrix(1 0 0 1 17.7554 302.958)" font-family="'MyriadPro-Regular'" font-size="9.6362" letter-spacing="40"> </text>
<text transform="matrix(1 0 0 1 61.1177 302.958)" font-family="'MyriadPro-Regular'" font-size="9.6362">Mars</text>
<text transform="matrix(1 0 0 1 17.7554 314.5234)" font-family="'MyriadPro-Regular'" font-size="9.6362" letter-spacing="40"> </text>
<text transform="matrix(1 0 0 1 61.1177 314.5234)" font-family="'MyriadPro-Regular'" font-size="9.6362">Sol</text>
<text transform="matrix(1 0 0 1 17.7554 326.0859)" font-family="'MyriadPro-Regular'" font-size="9.6362" letter-spacing="40"> </text>
<text transform="matrix(1 0 0 1 61.1177 326.0859)" font-family="'MyriadPro-Regular'" font-size="9.6362">Venus</text>
<text transform="matrix(1 0 0 1 17.7554 337.6494)" font-family="'MyriadPro-Regular'" font-size="9.6362" letter-spacing="40"> </text>
<text transform="matrix(1 0 0 1 61.1177 337.6494)" font-family="'MyriadPro-Regular'" font-size="9.6362">Saturn</text>
<text transform="matrix(1 0 0 1 370.3169 512.6064)" font-family="'MyriadPro-Regular'" font-size="8.419">   G:</text>
<text transform="matrix(1 0 0 1 382.854 512.6064)" font-family="'MyriadPro-Regular'" font-size="8.419" letter-spacing="9"> </text>
<text transform="matrix(1 0 0 1 395.5747 512.6064)" font-family="'MyriadPro-Regular'" font-size="8.419">&quot;Gain [x] Gold&quot;,</text>
<text transform="matrix(1 0 0 1 370.3169 522.708)" font-family="'MyriadPro-Regular'" font-size="8.419">   D:</text>
<text transform="matrix(1 0 0 1 382.1636 522.708)" font-family="'MyriadPro-Regular'" font-size="8.419" letter-spacing="9"> </text>
<text transform="matrix(1 0 0 1 395.5747 522.708)" font-family="'MyriadPro-Regular'" font-size="8.419">Gain [x] Dice,</text>
<text transform="matrix(1 0 0 1 384.6899 532.8115)" font-family="'MyriadPro-Regular'" font-size="8.419" letter-spacing="9"> </text>
<text transform="matrix(1 0 0 1 395.5767 532.8115)" font-family="'MyriadPro-Regular'" font-size="8.419">&quot;[ingredient] has [x] horizontal Reactions&quot;,</text>
<text transform="matrix(1 0 0 1 382.1138 542.915)" font-family="'MyriadPro-Regular'" font-size="8.419" letter-spacing="9"> </text>
<text transform="matrix(1 0 0 1 395.5747 542.915)" font-family="'MyriadPro-Regular'" font-size="8.419">&quot;[ingredient] has [x] vertical Reactions&quot;,</text>
<text transform="matrix(1 0 0 1 395.5747 553.0166)" font-family="'MyriadPro-Regular'" font-size="8.419">The [B/M/S] can be found in the domain of [domain],</text>
<text transform="matrix(1 0 0 1 370.3169 551.0166)" font-family="'MyriadPro-Regular'" font-size="8.419">   I:</text>
<text transform="matrix(1 0 0 1 383.022 563.1201)" font-family="'MyriadPro-Regular'" font-size="8.419" letter-spacing="9"> </text>
<text transform="matrix(1 0 0 1 395.5747 563.1201)" font-family="'MyriadPro-Regular'" font-size="8.419">The domain of [domain] has [x] reactions</text>
<text transform="matrix(1 0 0 1 395.5747 573.2236)" font-family="'MyriadPro-Regular'" font-size="8.419">The [B/M/S] requires [ingredient]</text>
<path opacity="0.5" enable-background="new    " d="M56.125,296.395c-0.125,0.546-0.426,1.111-0.594,1.689
	c-0.125,0.01-0.215-0.21-0.34-0.273c-0.397,0.318-0.727,0.701-1.075,1.071c0.336,0.393,0.611,1.079,0.638,1.666
	c0.084,1.634-1.229,3.022-2.919,2.987c-1.55-0.026-2.901-1.311-2.788-3.057c0.097-1.409,1.181-2.538,2.602-2.647
	c0.923-0.072,1.503,0.227,2.031,0.639c0.371-0.349,0.729-0.706,1.077-1.074c-0.049-0.166-0.304-0.238-0.294-0.387
	C55.032,296.823,55.57,296.6,56.125,296.395z M50.286,299.064c-0.376,0.375-0.668,0.946-0.662,1.621
	c0.002,1.188,0.825,1.993,1.755,2.212c1.607,0.377,2.964-0.958,2.787-2.511c-0.047-0.416-0.343-1.027-0.64-1.322
	c-0.346-0.348-0.987-0.723-1.826-0.64C51.048,298.489,50.594,298.754,50.286,299.064z"/>
<g opacity="0.5">
	<path d="M51.498,306.417c1.649-0.115,2.834,0.833,3.406,1.883c0.291,0.538,0.473,1.208,0.426,2.027
		c-0.075,1.395-0.922,2.448-1.905,2.985c-1.228,0.658-2.801,0.478-3.812-0.222c-0.924-0.633-1.703-1.705-1.596-3.286
		c0.067-0.98,0.563-1.829,1.074-2.335C49.601,306.953,50.389,306.492,51.498,306.417z M49.493,307.895
		c-0.484,0.488-0.896,1.226-0.879,2.216c0.013,0.917,0.462,1.72,0.928,2.167c0.501,0.482,1.263,0.86,2.143,0.858
		c1.649-0.005,2.942-1.266,3.045-2.835c0.063-0.847-0.286-1.708-0.714-2.217c-0.567-0.679-1.48-1.181-2.717-1.05
		C50.486,307.122,49.897,307.487,49.493,307.895z"/>
	<path d="M51.52,309.155c1.213-0.197,1.486,1.628,0.359,1.833C50.616,311.221,50.337,309.351,51.52,309.155z"/>
</g>
<path opacity="0.5" enable-background="new    " d="M50.581,292.069c0.75,0,1.503,0,2.254,0c0-2.082,0-4.163,0-6.245
	c0.217,0,0.432,0,0.646,0c-0.014,2.107,0.026,4.157,0.026,6.245c0.503,0,1.002,0,1.503,0c0,0.219,0,0.432,0,0.648
	c-0.501,0-1,0-1.503,0c0,0.388,0,0.778,0,1.167c-0.227,0-0.447,0-0.674,0c0-0.386,0-0.778,0-1.167c-1.429,0-2.85,0-4.281,0
	c1.17-0.77,3.061-1.983,3.214-3.965c0.087-1.13-0.382-2.286-1.503-2.281c-0.703,0.004-1.28,0.439-1.271,1.115
	c-0.175,0.114-0.422,0.285-0.622,0.285c-0.377-1.577,1.654-2.564,2.93-1.788c0.632,0.386,1.047,1.186,1.113,2.047
	C52.556,289.913,51.45,291.265,50.581,292.069z"/>
<g opacity="0.5">
	<g id="XMLID_3_">
		<g>
			<path d="M55.23,318.208c0.168,2.174-1.227,3.449-3.113,3.841c0,0.465,0,0.926,0,1.38c0.738,0.08,1.629,0.017,2.422,0.037
				c0,0.287,0,0.576,0,0.863c-0.792,0-1.59,0-2.388,0c-0.079,0.419-0.012,0.981-0.032,1.454c-0.284,0-0.578,0-0.867,0
				c0-0.473,0-0.945,0-1.419c-0.725-0.079-1.603-0.012-2.386-0.035c0-0.287,0-0.576,0-0.863c0.796,0,1.594,0,2.386,0
				c0-0.463,0-0.926,0-1.383c-1.81-0.419-3.145-1.59-3.147-3.563c0-1.931,1.38-3.404,3.219-3.568
				C53.506,314.764,55.084,316.295,55.23,318.208z M51.25,321.182c1.541,0.195,3.175-0.833,3.115-2.769
				c-0.047-1.518-1.327-2.723-2.939-2.558c-0.382,0.035-0.684,0.105-0.897,0.207c-0.725,0.332-1.402,1.08-1.529,2.037
				C48.792,319.759,49.967,321.017,51.25,321.182z"/>
		</g>
	</g>
</g>
<path opacity="0.5" enable-background="new    " d="M51.07,326.52c0.067,0.188,0.013,0.488,0.029,0.725c-0.251,0-0.503,0-0.752,0
	c-0.071,1.182-0.012,2.485-0.03,3.705c0.755-0.303,1.256-0.795,2.345-0.693c1.067,0.099,2.066,1.256,1.828,2.461
	c-0.107,0.529-0.415,1.042-0.67,1.505c-0.246,0.459-0.639,0.935-0.749,1.391c-0.099,0.397,0.018,0.843,0.288,1.042
	c-0.128,0.21-0.284,0.393-0.407,0.607c-0.595-0.391-0.788-1.252-0.526-1.997c0.326-0.911,1.205-1.788,1.331-2.691
	c0.108-0.753-0.499-1.522-1.157-1.59c-0.906-0.096-1.746,0.526-2.286,0.929c0,1.207,0,2.413,0,3.618c-0.239,0-0.479,0-0.726,0
	c0-2.76,0-5.52,0-8.281c-0.261,0-0.523,0-0.78,0c0.022-0.229-0.034-0.538,0.027-0.723C49.587,326.52,50.329,326.52,51.07,326.52z"/>
<text transform="matrix(0.5578 0 0 1 383.5176 561.5947)" font-family="'MyriadPro-Regular'" font-size="42.3589">{</text>
<g>
	<text transform="matrix(1 0 0 1 448.8169 249.3613)" font-family="'MyriadPro-Regular'" font-size="16">On Your Turn, Either:</text>
	<text transform="matrix(1 0 0 1 448.8169 261.584)" font-family="'MyriadPro-Regular'" font-size="7.5715">Mix 2 Ingredients for 3 Gold</text>
	<text transform="matrix(1 0 0 1 448.8169 270.6699)" font-family="'MyriadPro-Regular'" font-size="7.5715">Mix 3 Ingredients for 2 Gold</text>
	<text transform="matrix(1 0 0 1 448.8169 279.7539)" font-family="'MyriadPro-Regular'" font-size="7.5715">Mix 4 or more ingredients for 1 Gold</text>
	<text transform="matrix(1 0 0 1 448.8169 299.6797)" font-family="'MyriadPro-Regular'" font-size="7.5715">Re-roll as many of your dice as you want for 1 Gold</text>
	<text transform="matrix(1 0 0 1 448.8169 288.4258)" font-family="'MyriadPro-Regular'" font-size="7.5715">Buy [x] specific ingredients for [x] Gold</text>
</g>
<text transform="matrix(1 0 0 1 370.5337 323.3555)" font-family="'MyriadPro-Regular'" font-size="12">Each ajacent pair of ingredients will produce either:</text>
<text transform="matrix(1 0 0 1 369.5337 342.5225)" font-family="'MyriadPro-Regular'" font-size="16">No Reaction</text>
<text transform="matrix(1 0 0 1 368.9053 372.1895)" font-family="'MyriadPro-Regular'" font-size="16">Weak Reaction</text>
<text transform="matrix(1 0 0 1 368.9053 381.2578)" font-family="'MyriadPro-Regular'" font-size="8.419">If mixed the other way round, you will get a strong or exhaustible reaction.</text>
<text transform="matrix(1 0 0 1 368.9048 587.4736)" font-family="'MyriadPro-Regular'" font-size="11">Mix any recipe that gives you the Essence of Mind, Body AND Spirit to create the philosopers Stone </text>
<text transform="matrix(1 0 0 1 369.9053 353.2891)" font-family="'MyriadPro-Regular'" font-size="8.419">These ingredients will not react.</text>
<circle fill="none" stroke="#000000" cx="782.81" cy="311.73" r="13"/>
<g transform="translate(0,0)">
	<path stroke="#020100" stroke-width="2.5535" d="M745.315,198.833l-1.188-0.745c-2.324-1.425-5.226-2.253-7.72-1.476
		c-2.68,0.834-4.817,2.898-5.938,6l-1.595-0.821c-2.748-1.415-4.187-1.437-5.379-0.9c-0.952,0.426-1.944,1.45-3.069,2.946
		l13.979,10.809c2.188,0.713,5.395,0.695,8.602-0.136c3.223-0.831,6.429-2.46,8.771-4.648l5.276-13.046
		C752.406,193.143,748.166,195.27,745.315,198.833z M754.324,211.813c-2.885,2.918-7.177,4.886-10.519,5.768
		c-1.171,0.306-2.342,0.526-3.478,0.646c-0.628,1.034-1.154,2.086-1.562,3.139c0.814,4.139,2.342,7.532,4.632,10.314l-2.442,2.035
		c-1.408-1.696-2.664-3.528-3.614-5.564c-0.152,3.936,0.729,8.008,2.172,12.249l-3.003,1.018
		c-2.646-7.735-3.546-15.658,0.169-23.123c-1.255-0.102-2.442-0.339-3.545-0.729l-0.051-0.017c-0.729,0.695-1.426,1.425-2.087,2.188
		c-5.355,6.209-8.306,14.471-6.763,20.9c0.826,3.444,2.308,6.702,4.438,9.484c3.122-0.068,6.073,0,8.754,1.017
		c1.272-0.135,2.578-0.22,3.936-0.22c4.835,0,9.213,0.899,12.521,2.459c1.289,0.611,2.46,1.341,3.393,2.172
		c0-0.899,0.136-1.866,0.407-2.578c-1.51-1.425-2.46-3.155-2.46-5.124c0-2.731,1.815-4.987,4.445-6.615
		c0-0.781,0.152-1.527,0.424-2.24c-1.714-1.476-2.816-3.309-2.816-5.445c0-1.341,0.441-2.562,1.188-3.665
		c-0.747-1.086-1.188-2.307-1.188-3.647c0-0.661,0.103-1.272,0.289-1.866c-1.646-1.459-2.681-3.257-2.681-5.326
		c0-2.054,1.018-3.835,2.646-5.276C756.529,212.983,755.46,212.321,754.324,211.813L754.324,211.813z M773.222,212.203
		c-4.411,0-8.397,0.933-11.129,2.307c-2.748,1.374-4.037,3.07-4.037,4.53c0,1.476,1.289,3.172,4.037,4.546
		c2.731,1.374,6.718,2.308,11.129,2.308c1.917,0,3.732-0.187,5.412-0.492v-2.884c2.358-0.356,4.31-1.001,5.564-1.832v2.985
		c2.12-0.61,4.156-2.867,4.207-4.631c0-1.46-1.289-3.156-4.037-4.53S777.65,212.203,773.222,212.203L773.222,212.203z
		 M789.593,223.688c-0.56,0.595-1.222,1.154-1.968,1.663l0.034,4.92c2.138-1.272,3.139-2.748,3.139-4.038
		C790.798,225.419,790.408,224.536,789.593,223.688z M760.448,226.301c0.051,1.459,1.34,3.104,4.037,4.462
		c2.749,1.392,6.719,2.307,11.146,2.307c2.766,0,5.361-0.373,7.583-0.984l0.119-4.613c-2.918,1.018-6.379,1.577-10.111,1.577
		c-4.835,0-9.229-0.967-12.554-2.63C760.583,226.386,760.515,226.334,760.448,226.301L760.448,226.301z M760.787,232.204
		c-0.237,0.458-0.339,0.917-0.339,1.341c0,1.476,1.289,3.172,4.037,4.546c2.749,1.374,6.719,2.291,11.146,2.291
		c2.239,0,4.36-0.221,6.277-0.646v-4.07c-1.969,0.372-4.071,0.559-6.277,0.559c-4.853,0-9.246-0.949-12.571-2.629
		C762.229,233.188,761.465,232.713,760.787,232.204z M790.458,232.204c-1.034,0.729-1.934,1.272-2.985,1.73v3.784
		c2.256-1.308,3.325-2.834,3.325-4.174C790.798,233.121,790.696,232.662,790.458,232.204z M791.731,238.448
		c-0.339,0.339-0.712,0.661-1.119,0.983v5.496c1.747-1.187,2.596-2.493,2.596-3.682
		C793.208,240.348,792.715,239.381,791.731,238.448L791.731,238.448z M762.874,240.822c-0.017,0.152-0.033,0.289-0.033,0.424
		c0,1.477,1.289,3.156,4.037,4.53c2.748,1.391,6.735,2.307,11.146,2.307c2.527,0,4.937-0.305,7.023-0.813v-5.072
		c-2.766,0.882-5.972,1.357-9.416,1.357c-4.853,0-9.246-0.968-12.571-2.63C762.993,240.891,762.942,240.856,762.874,240.822
		L762.874,240.822z M760.567,244.453c-1.477,1.103-2.172,2.308-2.172,3.393c0,1.476,1.289,3.156,4.037,4.547
		c2.749,1.374,6.719,2.291,11.146,2.291c1.611,0,3.173-0.119,4.632-0.34v-3.088h-0.187c-4.853,0-9.246-0.967-12.571-2.646
		C763.332,247.558,761.568,246.149,760.567,244.453L760.567,244.453z M788.134,249.645c-1.34,0.476-2.799,0.865-4.359,1.119v2.054
		c0.322-0.137,0.645-0.271,0.949-0.425C786.387,251.545,787.506,250.594,788.134,249.645z M789.696,252.732
		c-0.646,0.644-1.392,1.221-2.223,1.747v4.852c2.256-1.289,3.325-2.816,3.325-4.156
		C790.798,254.395,790.442,253.546,789.696,252.732z M730.539,253.207c-1.73,0.017-3.597,0.238-5.531,0.696
		c-3.869,0.898-7.196,2.544-9.367,4.359c-2.172,1.798-3.021,3.631-2.766,4.937c0.255,1.307,1.595,2.511,4.208,3.206
		c2.604,0.68,6.246,0.713,10.114-0.187c1.561-0.372,3.02-0.848,4.359-1.408v-3.512c2.478-1.103,4.326-2.426,5.157-3.715v4.139
		c2.053-1.764,2.851-3.527,2.613-4.817c-0.238-1.306-1.595-2.511-4.207-3.189C733.813,253.376,732.251,253.189,730.539,253.207z
		 M741.499,254.089c0.457,0.662,0.779,1.408,0.949,2.24c0.187,1.018,0.102,2.001-0.203,2.968c1.68,0.442,3.206,1.035,4.529,1.782
		c0.747,0.407,1.442,0.899,2.053,1.408c1.526-0.356,2.816-0.865,3.732-1.477v3.495c2.731-1.289,3.987-2.867,3.987-4.123
		c0-1.271-1.256-2.85-4.004-4.14C749.811,254.972,745.875,254.106,741.499,254.089z M760.464,254.938
		c-0.017,0.067-0.017,0.152-0.017,0.237c0,1.477,1.289,3.155,4.037,4.547c2.749,1.374,6.719,2.29,11.146,2.29
		c2.239,0,4.36-0.237,6.277-0.645v-4.563c-2.512,0.679-5.344,1.052-8.33,1.052c-4.853,0-9.246-0.967-12.571-2.63
		C760.821,255.124,760.634,255.022,760.464,254.938L760.464,254.938z M760.94,261.266c-0.34,0.56-0.492,1.103-0.492,1.628
		c0,1.477,1.289,3.155,4.037,4.547c2.749,1.375,6.719,2.29,11.146,2.29c2.239,0,4.36-0.237,6.277-0.644v-4.479
		c-1.969,0.373-4.071,0.577-6.277,0.577c-4.853,0-9.246-0.967-12.571-2.647C762.297,262.165,761.584,261.74,760.94,261.266
		L760.94,261.266z M790.306,261.266c-0.984,0.661-1.85,1.188-2.833,1.611v4.174c2.256-1.289,3.325-2.816,3.325-4.157
		C790.798,262.368,790.645,261.825,790.306,261.266z M740.667,262.182c-0.594,0.746-1.289,1.459-2.069,2.104
		c-2.646,2.223-6.379,4.021-10.688,5.021c-1.536,0.356-3.063,0.577-4.529,0.695c0.543,0.899,1.498,1.781,2.896,2.563
		c2.313,1.306,5.706,2.188,9.472,2.188c1.714,0,3.342-0.186,4.835-0.509v-3.528c2.342-0.356,4.31-1.001,5.564-1.832v3.121
		c1.696-1.188,2.511-2.527,2.511-3.8c0-1.476-1.103-3.054-3.427-4.36C743.975,263.148,742.414,262.571,740.667,262.182z"/>
</g>
<text transform="matrix(1 0 0 1 730.937 251.5537)" fill="#FBEB49" font-family="'MyriadPro-Regular'" font-size="24.0142">Gold</text>
</svg>
