<?xml version="1.0" encoding="utf-8"?>
<!-- Generator: Adobe Illustrator 15.1.0, SVG Export Plug-In . SVG Version: 6.00 Build 0)  -->
<!DOCTYPE svg PUBLIC "-//W3C//DTD SVG 1.1//EN" "http://www.w3.org/Graphics/SVG/1.1/DTD/svg11.dtd">
<svg version="1.1" id="Layer_1" xmlns="http://www.w3.org/2000/svg" xmlns:xlink="http://www.w3.org/1999/xlink" x="0px" y="0px"
	 width="841.89px" height="595.28px" viewBox="0 0 841.89 595.28" enable-background="new 0 0 841.89 595.28" xml:space="preserve">
<g>
	<g>
		<defs>
			<polygon id="SVGID_1_" points="713.765,89.014 808.051,89.014 808.051,400.482 713.765,400.482 713.765,89.014 			"/>
		</defs>
		<clipPath id="SVGID_2_">
			<use xlink:href="#SVGID_1_"  overflow="visible"/>
		</clipPath>
		<g clip-path="url(#SVGID_2_)">
			<text transform="matrix(0.999 0 0 1 725.8125 134.1011)"><tspan x="0" y="0" fill="#010202" font-family="'Calibri'" font-size="7.8654">3</tspan><tspan x="3.672" y="0" fill="#010202" font-family="'Calibri'" font-size="7.8654">0</tspan></text>
		</g>
		<g clip-path="url(#SVGID_2_)">
			<text transform="matrix(0.999 0 0 1 757.2432 134.1011)"><tspan x="0" y="0" fill="#010202" font-family="'Calibri'" font-size="7.8654">2</tspan><tspan x="3.672" y="0" fill="#010202" font-family="'Calibri'" font-size="7.8654">9</tspan></text>
		</g>
		<g clip-path="url(#SVGID_2_)">
			<text transform="matrix(0.999 0 0 1 788.6729 134.1011)"><tspan x="0" y="0" fill="#010202" font-family="'Calibri'" font-size="7.8654">2</tspan><tspan x="3.672" y="0" fill="#010202" font-family="'Calibri'" font-size="7.8654">8</tspan></text>
		</g>
		<g clip-path="url(#SVGID_2_)">
			<text transform="matrix(0.999 0 0 1 725.8125 162.4199)"><tspan x="0" y="0" fill="#010202" font-family="'Calibri'" font-size="7.8654">2</tspan><tspan x="3.672" y="0" fill="#010202" font-family="'Calibri'" font-size="7.8654">7</tspan></text>
		</g>
		<g clip-path="url(#SVGID_2_)">
			<text transform="matrix(0.999 0 0 1 757.2432 162.4199)"><tspan x="0" y="0" fill="#010202" font-family="'Calibri'" font-size="7.8654">2</tspan><tspan x="3.672" y="0" fill="#010202" font-family="'Calibri'" font-size="7.8654">6</tspan></text>
		</g>
		<g clip-path="url(#SVGID_2_)">
			<text transform="matrix(0.999 0 0 1 788.6729 162.4199)"><tspan x="0" y="0" fill="#010202" font-family="'Calibri'" font-size="7.8654">2</tspan><tspan x="3.672" y="0" fill="#010202" font-family="'Calibri'" font-size="7.8654">5</tspan></text>
		</g>
		<g clip-path="url(#SVGID_2_)">
			<text transform="matrix(0.999 0 0 1 725.8125 190.7329)"><tspan x="0" y="0" fill="#010202" font-family="'Calibri'" font-size="7.8654">2</tspan><tspan x="3.672" y="0" fill="#010202" font-family="'Calibri'" font-size="7.8654">4</tspan></text>
		</g>
		<g clip-path="url(#SVGID_2_)">
			<text transform="matrix(0.999 0 0 1 757.2432 190.7329)"><tspan x="0" y="0" fill="#010202" font-family="'Calibri'" font-size="7.8654">2</tspan><tspan x="3.672" y="0" fill="#010202" font-family="'Calibri'" font-size="7.8654">3</tspan></text>
		</g>
		<g clip-path="url(#SVGID_2_)">
			<text transform="matrix(0.999 0 0 1 788.6729 190.7329)"><tspan x="0" y="0" fill="#010202" font-family="'Calibri'" font-size="7.8654">2</tspan><tspan x="3.672" y="0" fill="#010202" font-family="'Calibri'" font-size="7.8654">2</tspan></text>
		</g>
		<g clip-path="url(#SVGID_2_)">
			<text transform="matrix(0.999 0 0 1 725.8125 219.0522)"><tspan x="0" y="0" fill="#010202" font-family="'Calibri'" font-size="7.8654">2</tspan><tspan x="3.672" y="0" fill="#010202" font-family="'Calibri'" font-size="7.8654">1</tspan></text>
		</g>
		<g clip-path="url(#SVGID_2_)">
			<text transform="matrix(0.999 0 0 1 757.2432 219.0522)"><tspan x="0" y="0" fill="#010202" font-family="'Calibri'" font-size="7.8654">2</tspan><tspan x="3.672" y="0" fill="#010202" font-family="'Calibri'" font-size="7.8654">0</tspan></text>
		</g>
		<g clip-path="url(#SVGID_2_)">
			<text transform="matrix(0.999 0 0 1 788.6729 219.0522)"><tspan x="0" y="0" fill="#010202" font-family="'Calibri'" font-size="7.8654">1</tspan><tspan x="3.672" y="0" fill="#010202" font-family="'Calibri'" font-size="7.8654">9</tspan></text>
		</g>
		<g clip-path="url(#SVGID_2_)">
			<text transform="matrix(0.999 0 0 1 725.8125 247.3604)"><tspan x="0" y="0" fill="#010202" font-family="'Calibri'" font-size="7.8654">1</tspan><tspan x="3.672" y="0" fill="#010202" font-family="'Calibri'" font-size="7.8654">8</tspan></text>
		</g>
		<g clip-path="url(#SVGID_2_)">
			<text transform="matrix(0.999 0 0 1 757.2432 247.3604)"><tspan x="0" y="0" fill="#010202" font-family="'Calibri'" font-size="7.8654">1</tspan><tspan x="3.672" y="0" fill="#010202" font-family="'Calibri'" font-size="7.8654">7</tspan></text>
		</g>
		<g clip-path="url(#SVGID_2_)">
			<text transform="matrix(0.999 0 0 1 788.6729 247.3604)"><tspan x="0" y="0" fill="#010202" font-family="'Calibri'" font-size="7.8654">1</tspan><tspan x="3.672" y="0" fill="#010202" font-family="'Calibri'" font-size="7.8654">6</tspan></text>
		</g>
		<g clip-path="url(#SVGID_2_)">
			<text transform="matrix(0.999 0 0 1 725.8125 275.6787)"><tspan x="0" y="0" fill="#010202" font-family="'Calibri'" font-size="7.8654">1</tspan><tspan x="3.672" y="0" fill="#010202" font-family="'Calibri'" font-size="7.8654">5</tspan></text>
		</g>
		<g clip-path="url(#SVGID_2_)">
			<text transform="matrix(0.999 0 0 1 757.2432 275.6787)"><tspan x="0" y="0" fill="#010202" font-family="'Calibri'" font-size="7.8654">1</tspan><tspan x="3.672" y="0" fill="#010202" font-family="'Calibri'" font-size="7.8654">4</tspan></text>
		</g>
		<g clip-path="url(#SVGID_2_)">
			<text transform="matrix(0.999 0 0 1 788.6729 275.6787)"><tspan x="0" y="0" fill="#010202" font-family="'Calibri'" font-size="7.8654">1</tspan><tspan x="3.672" y="0" fill="#010202" font-family="'Calibri'" font-size="7.8654">3</tspan></text>
		</g>
		<g clip-path="url(#SVGID_2_)">
			<text transform="matrix(0.999 0 0 1 725.8125 303.9932)"><tspan x="0" y="0" fill="#010202" font-family="'Calibri'" font-size="7.8654">1</tspan><tspan x="3.672" y="0" fill="#010202" font-family="'Calibri'" font-size="7.8654">2</tspan></text>
		</g>
		<g clip-path="url(#SVGID_2_)">
			<text transform="matrix(0.999 0 0 1 757.2432 303.9932)"><tspan x="0" y="0" fill="#010202" font-family="'Calibri'" font-size="7.8654">1</tspan><tspan x="3.672" y="0" fill="#010202" font-family="'Calibri'" font-size="7.8654">1</tspan></text>
		</g>
		<g clip-path="url(#SVGID_2_)">
			<text transform="matrix(0.999 0 0 1 788.6729 303.9932)"><tspan x="0" y="0" fill="#010202" font-family="'Calibri'" font-size="7.8654">1</tspan><tspan x="3.672" y="0" fill="#010202" font-family="'Calibri'" font-size="7.8654">0</tspan></text>
		</g>
		<g clip-path="url(#SVGID_2_)">
			<text transform="matrix(0.999 0 0 1 727.3857 332.3105)" fill="#010202" font-family="'Calibri'" font-size="7.8654">9</text>
		</g>
		<g clip-path="url(#SVGID_2_)">
			<text transform="matrix(0.999 0 0 1 758.8145 332.3105)" fill="#010202" font-family="'Calibri'" font-size="7.8654">8</text>
		</g>
		<g clip-path="url(#SVGID_2_)">
			<text transform="matrix(0.999 0 0 1 790.2393 332.3105)" fill="#010202" font-family="'Calibri'" font-size="7.8654">7</text>
		</g>
		<g clip-path="url(#SVGID_2_)">
			<text transform="matrix(0.999 0 0 1 727.3857 360.624)" fill="#010202" font-family="'Calibri'" font-size="7.8654">6</text>
		</g>
		<g clip-path="url(#SVGID_2_)">
			<text transform="matrix(0.999 0 0 1 758.8145 360.624)" fill="#010202" font-family="'Calibri'" font-size="7.8654">5</text>
		</g>
		<g clip-path="url(#SVGID_2_)">
			<text transform="matrix(0.999 0 0 1 790.2393 360.624)" fill="#010202" font-family="'Calibri'" font-size="7.8654">4</text>
		</g>
		<g clip-path="url(#SVGID_2_)">
			<text transform="matrix(0.999 0 0 1 727.3857 388.9414)" fill="#010202" font-family="'Calibri'" font-size="7.8654">3</text>
		</g>
		<g clip-path="url(#SVGID_2_)">
			<text transform="matrix(0.999 0 0 1 758.8145 388.9414)" fill="#010202" font-family="'Calibri'" font-size="7.8654">2</text>
		</g>
		<g clip-path="url(#SVGID_2_)">
			<text transform="matrix(0.999 0 0 1 790.2393 388.9414)" fill="#010202" font-family="'Calibri'" font-size="7.8654">1</text>
		</g>
	</g>
	<g>
		<defs>
			<polygon id="SVGID_3_" points="713.765,89.014 807.526,89.014 807.526,116.805 713.765,116.805 713.765,89.014 			"/>
		</defs>
		<clipPath id="SVGID_4_">
			<use xlink:href="#SVGID_3_"  overflow="visible"/>
		</clipPath>
		<g clip-path="url(#SVGID_4_)">
			<text transform="matrix(0.999 0 0 1 753.0518 105.2607)"><tspan x="0" y="0" fill="#010202" font-family="'Calibri-Bold'" font-size="7.8654">G</tspan><tspan x="5.24" y="0" fill="#010202" font-family="'Calibri-Bold'" font-size="7.8654">o</tspan><tspan x="9.437" y="0" fill="#010202" font-family="'Calibri-Bold'" font-size="7.8654">l</tspan><tspan x="11.534" y="0" fill="#010202" font-family="'Calibri-Bold'" font-size="7.8654">d</tspan></text>
		</g>
	</g>
	<g>
		<defs>
			<polygon id="SVGID_5_" points="713.241,88.49 808.051,88.49 808.051,400.482 713.241,400.482 713.241,88.49 			"/>
		</defs>
		<clipPath id="SVGID_6_">
			<use xlink:href="#SVGID_5_"  overflow="visible"/>
		</clipPath>
		
			<line clip-path="url(#SVGID_6_)" fill="none" stroke="#D5D5D4" stroke-width="0" stroke-linecap="square" stroke-miterlimit="10" x1="744.669" y1="88.49" x2="744.669" y2="89.014"/>
		<polyline clip-path="url(#SVGID_6_)" fill-rule="evenodd" clip-rule="evenodd" fill="#D5D5D4" points="744.669,88.49 
			744.669,89.014 745.193,89.014 745.193,88.49 744.669,88.49 		"/>
		
			<line clip-path="url(#SVGID_6_)" fill="none" stroke="#D5D5D4" stroke-width="0" stroke-linecap="square" stroke-miterlimit="10" x1="776.098" y1="88.49" x2="776.098" y2="89.014"/>
		<polyline clip-path="url(#SVGID_6_)" fill-rule="evenodd" clip-rule="evenodd" fill="#D5D5D4" points="776.098,88.49 
			776.098,89.014 776.622,89.014 776.622,88.49 776.098,88.49 		"/>
		
			<line clip-path="url(#SVGID_6_)" fill="none" stroke="#D5D5D4" stroke-width="0" stroke-linecap="square" stroke-miterlimit="10" x1="713.241" y1="88.49" x2="713.241" y2="401.005"/>
		<polyline clip-path="url(#SVGID_6_)" fill-rule="evenodd" clip-rule="evenodd" fill="#D5D5D4" points="713.241,88.49 
			713.241,401.005 713.765,401.005 713.765,88.49 713.241,88.49 		"/>
		
			<line clip-path="url(#SVGID_6_)" fill="none" stroke="#D5D5D4" stroke-width="0" stroke-linecap="square" stroke-miterlimit="10" x1="744.669" y1="117.329" x2="744.669" y2="401.005"/>
		<polyline clip-path="url(#SVGID_6_)" fill-rule="evenodd" clip-rule="evenodd" fill="#D5D5D4" points="744.669,117.329 
			744.669,401.005 745.193,401.005 745.193,117.329 744.669,117.329 		"/>
		
			<line clip-path="url(#SVGID_6_)" fill="none" stroke="#D5D5D4" stroke-width="0" stroke-linecap="square" stroke-miterlimit="10" x1="776.098" y1="117.329" x2="776.098" y2="401.005"/>
		<polyline clip-path="url(#SVGID_6_)" fill-rule="evenodd" clip-rule="evenodd" fill="#D5D5D4" points="776.098,117.329 
			776.098,401.005 776.622,401.005 776.622,117.329 776.098,117.329 		"/>
		
			<line clip-path="url(#SVGID_6_)" fill="none" stroke="#D5D5D4" stroke-width="0" stroke-linecap="square" stroke-miterlimit="10" x1="807.526" y1="88.49" x2="807.526" y2="401.005"/>
		<polyline clip-path="url(#SVGID_6_)" fill-rule="evenodd" clip-rule="evenodd" fill="#D5D5D4" points="807.526,88.49 
			807.526,401.005 808.051,401.005 808.051,88.49 807.526,88.49 		"/>
		
			<line clip-path="url(#SVGID_6_)" fill="none" stroke="#D5D5D4" stroke-width="0" stroke-linecap="square" stroke-miterlimit="10" x1="713.241" y1="88.49" x2="808.575" y2="88.49"/>
		<polyline clip-path="url(#SVGID_6_)" fill-rule="evenodd" clip-rule="evenodd" fill="#D5D5D4" points="713.241,88.49 
			713.241,89.014 808.575,89.014 808.575,88.49 713.241,88.49 		"/>
		
			<line clip-path="url(#SVGID_6_)" fill="none" stroke="#D5D5D4" stroke-width="0" stroke-linecap="square" stroke-miterlimit="10" x1="713.241" y1="116.805" x2="808.575" y2="116.805"/>
		<polyline clip-path="url(#SVGID_6_)" fill-rule="evenodd" clip-rule="evenodd" fill="#D5D5D4" points="713.241,116.805 
			713.241,117.329 808.575,117.329 808.575,116.805 713.241,116.805 		"/>
		
			<line clip-path="url(#SVGID_6_)" fill="none" stroke="#D5D5D4" stroke-width="0" stroke-linecap="square" stroke-miterlimit="10" x1="713.241" y1="145.12" x2="808.575" y2="145.12"/>
		<polyline clip-path="url(#SVGID_6_)" fill-rule="evenodd" clip-rule="evenodd" fill="#D5D5D4" points="713.241,145.12 
			713.241,145.645 808.575,145.645 808.575,145.12 713.241,145.12 		"/>
		
			<line clip-path="url(#SVGID_6_)" fill="none" stroke="#D5D5D4" stroke-width="0" stroke-linecap="square" stroke-miterlimit="10" x1="713.241" y1="173.436" x2="808.575" y2="173.436"/>
		<polyline clip-path="url(#SVGID_6_)" fill-rule="evenodd" clip-rule="evenodd" fill="#D5D5D4" points="713.241,173.436 
			713.241,173.96 808.575,173.96 808.575,173.436 713.241,173.436 		"/>
		
			<line clip-path="url(#SVGID_6_)" fill="none" stroke="#D5D5D4" stroke-width="0" stroke-linecap="square" stroke-miterlimit="10" x1="713.241" y1="201.751" x2="808.575" y2="201.751"/>
		<polyline clip-path="url(#SVGID_6_)" fill-rule="evenodd" clip-rule="evenodd" fill="#D5D5D4" points="713.241,201.751 
			713.241,202.275 808.575,202.275 808.575,201.751 713.241,201.751 		"/>
		
			<line clip-path="url(#SVGID_6_)" fill="none" stroke="#D5D5D4" stroke-width="0" stroke-linecap="square" stroke-miterlimit="10" x1="713.241" y1="230.066" x2="808.575" y2="230.066"/>
		<polyline clip-path="url(#SVGID_6_)" fill-rule="evenodd" clip-rule="evenodd" fill="#D5D5D4" points="713.241,230.066 
			713.241,230.59 808.575,230.59 808.575,230.066 713.241,230.066 		"/>
		
			<line clip-path="url(#SVGID_6_)" fill="none" stroke="#D5D5D4" stroke-width="0" stroke-linecap="square" stroke-miterlimit="10" x1="713.241" y1="258.382" x2="808.575" y2="258.382"/>
		<polyline clip-path="url(#SVGID_6_)" fill-rule="evenodd" clip-rule="evenodd" fill="#D5D5D4" points="713.241,258.382 
			713.241,258.906 808.575,258.906 808.575,258.382 713.241,258.382 		"/>
		
			<line clip-path="url(#SVGID_6_)" fill="none" stroke="#D5D5D4" stroke-width="0" stroke-linecap="square" stroke-miterlimit="10" x1="713.241" y1="286.697" x2="808.575" y2="286.697"/>
		<polyline clip-path="url(#SVGID_6_)" fill-rule="evenodd" clip-rule="evenodd" fill="#D5D5D4" points="713.241,286.697 
			713.241,287.221 808.575,287.221 808.575,286.697 713.241,286.697 		"/>
		
			<line clip-path="url(#SVGID_6_)" fill="none" stroke="#D5D5D4" stroke-width="0" stroke-linecap="square" stroke-miterlimit="10" x1="713.241" y1="315.012" x2="808.575" y2="315.012"/>
		<polyline clip-path="url(#SVGID_6_)" fill-rule="evenodd" clip-rule="evenodd" fill="#D5D5D4" points="713.241,315.012 
			713.241,315.536 808.575,315.536 808.575,315.012 713.241,315.012 		"/>
		
			<line clip-path="url(#SVGID_6_)" fill="none" stroke="#D5D5D4" stroke-width="0" stroke-linecap="square" stroke-miterlimit="10" x1="713.241" y1="343.325" x2="808.575" y2="343.325"/>
		<polyline clip-path="url(#SVGID_6_)" fill-rule="evenodd" clip-rule="evenodd" fill="#D5D5D4" points="713.241,343.325 
			713.241,343.852 808.575,343.852 808.575,343.325 713.241,343.325 		"/>
		
			<line clip-path="url(#SVGID_6_)" fill="none" stroke="#D5D5D4" stroke-width="0" stroke-linecap="square" stroke-miterlimit="10" x1="713.241" y1="371.643" x2="808.575" y2="371.643"/>
		<polyline clip-path="url(#SVGID_6_)" fill-rule="evenodd" clip-rule="evenodd" fill="#D5D5D4" points="713.241,371.643 
			713.241,372.165 808.575,372.165 808.575,371.643 713.241,371.643 		"/>
		
			<line clip-path="url(#SVGID_6_)" fill="none" stroke="#D5D5D4" stroke-width="0" stroke-linecap="square" stroke-miterlimit="10" x1="713.241" y1="399.959" x2="808.575" y2="399.959"/>
		<polyline clip-path="url(#SVGID_6_)" fill-rule="evenodd" clip-rule="evenodd" fill="#D5D5D4" points="713.241,399.959 
			713.241,400.482 808.575,400.482 808.575,399.959 713.241,399.959 		"/>
	</g>
	<g>
		<defs>
			<polygon id="SVGID_7_" points="713.765,89.014 808.051,89.014 808.051,400.482 713.765,400.482 713.765,89.014 			"/>
		</defs>
		<defs>
			<polygon id="SVGID_8_" points="713.765,89.014 808.051,89.014 808.051,400.482 713.765,400.482 713.765,89.014 			"/>
		</defs>
		<clipPath id="SVGID_9_">
			<use xlink:href="#SVGID_7_"  overflow="visible"/>
		</clipPath>
		<clipPath id="SVGID_10_" clip-path="url(#SVGID_9_)">
			<use xlink:href="#SVGID_8_"  overflow="visible"/>
		</clipPath>
	</g>
</g>
<path fill="#FFFFFF" stroke="#000000" stroke-miterlimit="10" d="M124.27,552.55c0,4.696-3.807,8.504-8.504,8.504H32.773
	c-4.697,0-8.504-3.808-8.504-8.504V427.666c0-4.696,3.807-8.504,8.504-8.504h82.992c4.697,0,8.504,3.808,8.504,8.504V552.55z"/>
<text transform="matrix(1 0 0 1 48.6558 462.4053)"><tspan x="0" y="0" font-family="'MyriadPro-Regular'" font-size="12">Brimstone</tspan><tspan x="22.536" y="14.4" font-family="'MyriadPro-Regular'" font-size="12">1</tspan></text>
<path fill="#FFFFFF" stroke="#000000" stroke-miterlimit="10" d="M231.999,552.55c0,4.696-3.808,8.504-8.504,8.504h-82.992
	c-4.697,0-8.504-3.808-8.504-8.504V427.666c0-4.696,3.807-8.504,8.504-8.504h82.992c4.696,0,8.504,3.808,8.504,8.504V552.55z"/>
<text transform="matrix(1 0 0 1 154.3091 462.4053)"><tspan x="0" y="0" font-family="'MyriadPro-Regular'" font-size="12">Aqua Forte</tspan><tspan x="24.611" y="14.4" font-family="'MyriadPro-Regular'" font-size="12">2</tspan></text>
<path fill="#FFFFFF" stroke="#000000" stroke-miterlimit="10" d="M342.566,552.549c0,4.697-3.808,8.504-8.504,8.504H251.07
	c-4.697,0-8.504-3.807-8.504-8.504V427.666c0-4.697,3.807-8.504,8.504-8.504h82.992c4.696,0,8.504,3.807,8.504,8.504V552.549z"/>
<text transform="matrix(1 0 0 1 265.1709 462.4043)"><tspan x="0" y="0" font-family="'MyriadPro-Regular'" font-size="12">Quicksilver</tspan><tspan x="24.317" y="14.4" font-family="'MyriadPro-Regular'" font-size="12">3</tspan></text>
<path fill="#FFFFFF" stroke="#000000" stroke-miterlimit="10" d="M453.235,552.549c0,4.697-3.807,8.504-8.504,8.504H361.74
	c-4.697,0-8.504-3.807-8.504-8.504V427.666c0-4.697,3.807-8.504,8.504-8.504h82.992c4.697,0,8.504,3.807,8.504,8.504V552.549z"/>
<text transform="matrix(1 0 0 1 391.1221 462.4043)"><tspan x="0" y="0" font-family="'MyriadPro-Regular'" font-size="12">Lead</tspan><tspan x="9.036" y="14.4" font-family="'MyriadPro-Regular'" font-size="12">4</tspan></text>
<path fill="#FFFFFF" stroke="#000000" stroke-miterlimit="10" d="M564.864,552.55c0,4.696-3.808,8.504-8.504,8.504h-82.992
	c-4.697,0-8.504-3.808-8.504-8.504V427.666c0-4.696,3.807-8.504,8.504-8.504h82.992c4.696,0,8.504,3.808,8.504,8.504V552.55z"/>
<text transform="matrix(1 0 0 1 490.6719 462.4053)"><tspan x="0" y="0" font-family="'MyriadPro-Regular'" font-size="12">Phosphor</tspan><tspan x="21.114" y="14.4" font-family="'MyriadPro-Regular'" font-size="12">5</tspan></text>
<path fill="#FFFFFF" stroke="#000000" stroke-width="1.206" stroke-miterlimit="10" d="M826.409,554.891
	c0,4.778-5.44,8.653-12.153,8.653H695.641c-6.714,0-12.154-3.875-12.154-8.653V427.814c0-4.779,5.44-8.653,12.154-8.653h118.615
	c6.713,0,12.153,3.874,12.153,8.653V554.891z"/>
<text transform="matrix(1.0518 0 0 1 746.9609 445.6123)" font-family="'MyriadPro-Regular'" font-size="11.4086">Bin</text>
<g>
	<line fill="none" stroke="#000000" stroke-width="2" stroke-miterlimit="10" x1="52.165" y1="353.063" x2="366.705" y2="353.063"/>
	
		<line fill="none" stroke="#000000" stroke-width="0.9352" stroke-miterlimit="10" x1="52.165" y1="308.104" x2="366.705" y2="308.104"/>
	
		<line fill="none" stroke="#000000" stroke-width="0.9352" stroke-miterlimit="10" x1="52.165" y1="263.146" x2="366.705" y2="263.146"/>
	
		<line fill="none" stroke="#000000" stroke-width="0.9352" stroke-miterlimit="10" x1="52.165" y1="218.188" x2="366.705" y2="218.188"/>
	
		<line fill="none" stroke="#000000" stroke-width="0.9352" stroke-miterlimit="10" x1="52.165" y1="173.229" x2="366.705" y2="173.229"/>
	<line fill="none" stroke="#000000" stroke-width="2" stroke-miterlimit="10" x1="52.165" y1="128.271" x2="366.705" y2="128.271"/>
	<line fill="none" stroke="#000000" stroke-width="2" stroke-miterlimit="10" x1="366.873" y1="38.354" x2="366.873" y2="352.917"/>
	
		<line fill="none" stroke="#000000" stroke-width="0.9352" stroke-miterlimit="10" x1="321.915" y1="38.354" x2="321.915" y2="352.917"/>
	
		<line fill="none" stroke="#000000" stroke-width="0.9352" stroke-miterlimit="10" x1="276.957" y1="38.354" x2="276.957" y2="352.917"/>
	
		<line fill="none" stroke="#000000" stroke-width="0.9352" stroke-miterlimit="10" x1="231.999" y1="38.354" x2="231.999" y2="352.917"/>
	
		<line fill="none" stroke="#000000" stroke-width="0.9352" stroke-miterlimit="10" x1="187.04" y1="38.354" x2="187.04" y2="352.917"/>
	<line fill="none" stroke="#000000" stroke-width="2" stroke-miterlimit="10" x1="142.082" y1="38.354" x2="142.082" y2="352.917"/>
</g>
<text transform="matrix(1 0 0 1 80.2959 153.6753)" font-family="'MyriadPro-Regular'" font-size="12">Brimstone</text>
<text transform="matrix(1 0 0 1 76.4194 202.7129)" font-family="'MyriadPro-Regular'" font-size="12">Aqua Forte</text>
<text transform="matrix(1 0 0 1 76.792 244.4863)" font-family="'MyriadPro-Regular'" font-size="12">Quicksilver</text>
<text transform="matrix(1 0 0 1 107.4395 290.9189)" font-family="'MyriadPro-Regular'" font-size="12">Lead</text>
<text transform="matrix(1 0 0 1 82.6719 335.5137)" font-family="'MyriadPro-Regular'" font-size="12">phosphor</text>
<text transform="matrix(0 1 -1 0 163.3838 63.9766)" font-family="'MyriadPro-Regular'" font-size="12">Brimstone</text>
<text transform="matrix(0 1 -1 0 208.2646 60.1006)" font-family="'MyriadPro-Regular'" font-size="12">Aqua Forte</text>
<text transform="matrix(0 1 -1 0 249.6006 60.4727)" font-family="'MyriadPro-Regular'" font-size="12">Quicksilver</text>
<text transform="matrix(0 1 -1 0 292.5674 91.1201)" font-family="'MyriadPro-Regular'" font-size="12">Lead</text>
<text transform="matrix(0 1 -1 0 336.9521 66.3525)" font-family="'MyriadPro-Regular'" font-size="12">phosphor</text>
<text transform="matrix(0 -1 1 0 32.8306 275.0005)" font-family="'MyriadPro-Regular'" font-size="12">First Ingredient</text>
<text transform="matrix(1 0 0 1 208.2646 25.728)" font-family="'MyriadPro-Regular'" font-size="12">Second Ingredient</text>
<text transform="matrix(1 0 0 1 431.1357 75.6592)" font-family="'MyriadPro-Regular'" font-size="16">Strong Reactions</text>
<text transform="matrix(1 0 0 1 431.9199 87.293)"><tspan x="0" y="0" font-family="'MyriadPro-Regular'" font-size="8.419">   G: </tspan><tspan x="14.321" y="0" font-family="'MyriadPro-Regular'" font-size="8.419" letter-spacing="9">	</tspan><tspan x="25.258" y="0" font-family="'MyriadPro-Regular'" font-size="8.419">&quot;1 Gold&quot;,</tspan><tspan x="0" y="10.103" font-family="'MyriadPro-Regular'" font-size="8.419">   b:</tspan><tspan x="11.888" y="10.103" font-family="'MyriadPro-Regular'" font-size="8.419" letter-spacing="11">	</tspan><tspan x="25.258" y="10.103" font-family="'MyriadPro-Regular'" font-size="8.419">&quot;1 Brimstone Powder&quot;,</tspan><tspan x="0" y="20.206" font-family="'MyriadPro-Regular'" font-size="8.419">   a: </tspan><tspan x="12.94" y="20.206" font-family="'MyriadPro-Regular'" font-size="8.419" letter-spacing="10">	</tspan><tspan x="25.258" y="20.206" font-family="'MyriadPro-Regular'" font-size="8.419">&quot;1 Aqua Forte&quot;,</tspan><tspan x="0" y="30.309" font-family="'MyriadPro-Regular'" font-size="8.419">   q:</tspan><tspan x="11.838" y="30.309" font-family="'MyriadPro-Regular'" font-size="8.419" letter-spacing="11">	</tspan><tspan x="25.258" y="30.309" font-family="'MyriadPro-Regular'" font-size="8.419">&quot;1 Quicksilver&quot;,</tspan><tspan x="0" y="40.411" font-family="'MyriadPro-Regular'" font-size="8.419">    l:</tspan><tspan x="10.869" y="40.411" font-family="'MyriadPro-Regular'" font-size="8.419" letter-spacing="12">	</tspan><tspan x="25.258" y="40.411" font-family="'MyriadPro-Regular'" font-size="8.419">&quot;1 Lead Dust&quot;,</tspan><tspan x="0" y="50.514" font-family="'MyriadPro-Regular'" font-size="8.419">   p: </tspan><tspan x="13.673" y="50.514" font-family="'MyriadPro-Regular'" font-size="8.419" letter-spacing="9">	</tspan><tspan x="25.258" y="50.514" font-family="'MyriadPro-Regular'" font-size="8.419">&quot;1 Phosphoric Salt&quot;,</tspan><tspan x="0" y="60.617" font-family="'MyriadPro-Regular'" font-size="8.419">   n: </tspan><tspan x="13.556" y="60.617" font-family="'MyriadPro-Regular'" font-size="8.419" letter-spacing="9">	</tspan><tspan x="25.259" y="60.617" font-family="'MyriadPro-Regular'" font-size="8.419">&quot;1 Nitre&quot;,</tspan><tspan x="0" y="70.72" font-family="'MyriadPro-Regular'" font-size="8.419">   M:</tspan><tspan x="13.866" y="70.72" font-family="'MyriadPro-Regular'" font-size="8.419" letter-spacing="9">	</tspan><tspan x="25.258" y="70.72" font-family="'MyriadPro-Regular'" font-size="8.419"> &quot;The Mixture has Essence of Mind&quot;,</tspan><tspan x="0" y="80.822" font-family="'MyriadPro-Regular'" font-size="8.419">   B:</tspan><tspan x="11.661" y="80.822" font-family="'MyriadPro-Regular'" font-size="8.419" letter-spacing="11">	</tspan><tspan x="25.258" y="80.822" font-family="'MyriadPro-Regular'" font-size="8.419"> &quot;The Mixture has Essence of Body&quot;,</tspan><tspan x="0" y="90.925" font-family="'MyriadPro-Regular'" font-size="8.419">   S:</tspan><tspan x="11.248" y="90.925" font-family="'MyriadPro-Regular'" font-size="8.419" letter-spacing="12">	</tspan><tspan x="25.258" y="90.925" font-family="'MyriadPro-Regular'" font-size="8.419"> &quot;The Mixture has Essence of Spirit&quot;</tspan></text>
<text transform="matrix(1 0 0 1 432.3789 218.188)"><tspan x="0" y="0" font-family="'MyriadPro-Regular'" font-size="8.4164">   D:</tspan><tspan x="12.7" y="0" font-family="'MyriadPro-Regular'" font-size="8.4164" letter-spacing="10">	</tspan><tspan x="25.249" y="0" font-family="'MyriadPro-Regular'" font-size="8.4164"> &quot;3 Dice&quot;,</tspan><tspan x="0" y="10.1" font-family="'MyriadPro-Regular'" font-size="8.4164">   D:</tspan><tspan x="12.7" y="10.1" font-family="'MyriadPro-Regular'" font-size="8.4164" letter-spacing="10">	</tspan><tspan x="25.249" y="10.1" font-family="'MyriadPro-Regular'" font-size="8.4164"> &quot;3 Dice&quot;,</tspan><tspan x="0" y="20.199" font-family="'MyriadPro-Regular'" font-size="8.4164">   D:</tspan><tspan x="12.7" y="20.199" font-family="'MyriadPro-Regular'" font-size="8.4164" letter-spacing="10">	</tspan><tspan x="25.249" y="20.199" font-family="'MyriadPro-Regular'" font-size="8.4164"> &quot;3 Dice&quot;,</tspan><tspan x="0" y="30.299" font-family="'MyriadPro-Regular'" font-size="8.4164">   D:</tspan><tspan x="12.7" y="30.299" font-family="'MyriadPro-Regular'" font-size="8.4164" letter-spacing="10">	</tspan><tspan x="25.249" y="30.299" font-family="'MyriadPro-Regular'" font-size="8.4164"> &quot;3 Dice&quot;,</tspan><tspan x="0" y="40.398" font-family="'MyriadPro-Regular'" font-size="8.4164">   3G:</tspan><tspan x="16.849" y="40.398" font-family="'MyriadPro-Regular'" font-size="8.4164" letter-spacing="6">	</tspan><tspan x="25.249" y="40.398" font-family="'MyriadPro-Regular'" font-size="8.4164"> &quot;3 Gold&quot;,</tspan><tspan x="0" y="50.498" font-family="'MyriadPro-Regular'" font-size="8.4164">   3G:</tspan><tspan x="16.849" y="50.498" font-family="'MyriadPro-Regular'" font-size="8.4164" letter-spacing="6">	</tspan><tspan x="25.249" y="50.498" font-family="'MyriadPro-Regular'" font-size="8.4164"> &quot;3 Gold&quot;,</tspan><tspan x="0" y="60.598" font-family="'MyriadPro-Regular'" font-size="8.4164">   6G</tspan><tspan x="15.106" y="60.598" font-family="'MyriadPro-Regular'" font-size="8.4164" letter-spacing="8">	</tspan><tspan x="25.249" y="60.598" font-family="'MyriadPro-Regular'" font-size="8.4164"> &quot;6 Gold&quot;,</tspan><tspan x="0" y="70.697" font-family="'MyriadPro-Regular'" font-size="8.4164">   R:</tspan><tspan x="11.623" y="70.697" font-family="'MyriadPro-Regular'" font-size="8.4164" letter-spacing="11">	</tspan><tspan x="25.25" y="70.697" font-family="'MyriadPro-Regular'" font-size="8.4164"> &quot;You have found Brimstone Powder has this many lateral reactions :&quot;,</tspan><tspan x="0" y="80.797" font-family="'MyriadPro-Regular'" font-size="8.4164">   R:</tspan><tspan x="11.623" y="80.797" font-family="'MyriadPro-Regular'" font-size="8.4164" letter-spacing="11">	</tspan><tspan x="25.25" y="80.797" font-family="'MyriadPro-Regular'" font-size="8.4164"> &quot;You have found Aqua Forte has this many lateral reactions :&quot;,</tspan><tspan x="0" y="90.896" font-family="'MyriadPro-Regular'" font-size="8.4164">   R:</tspan><tspan x="11.623" y="90.896" font-family="'MyriadPro-Regular'" font-size="8.4164" letter-spacing="11">	</tspan><tspan x="25.25" y="90.896" font-family="'MyriadPro-Regular'" font-size="8.4164">  &quot;You have found Quicksilver has this many lateral reactions :&quot;,</tspan><tspan x="0" y="100.996" font-family="'MyriadPro-Regular'" font-size="8.4164">   R:</tspan><tspan x="11.623" y="100.996" font-family="'MyriadPro-Regular'" font-size="8.4164" letter-spacing="11">	</tspan><tspan x="25.25" y="100.996" font-family="'MyriadPro-Regular'" font-size="8.4164">  &quot;You have found Lead Dust has this many lateral reactions :&quot;,</tspan><tspan x="0" y="111.095" font-family="'MyriadPro-Regular'" font-size="8.4164">   R:</tspan><tspan x="11.623" y="111.095" font-family="'MyriadPro-Regular'" font-size="8.4164" letter-spacing="11">	</tspan><tspan x="25.25" y="111.095" font-family="'MyriadPro-Regular'" font-size="8.4164">  &quot;You have found Phosphoric Salt has this many lateral reactions:&quot;,</tspan><tspan x="0" y="121.195" font-family="'MyriadPro-Regular'" font-size="8.4164">   R:</tspan><tspan x="11.623" y="121.195" font-family="'MyriadPro-Regular'" font-size="8.4164" letter-spacing="11">	</tspan><tspan x="25.25" y="121.195" font-family="'MyriadPro-Regular'" font-size="8.4164">  &quot;You have found Nitre has this many lateral reactions :&quot;</tspan><tspan x="0" y="131.294" font-family="'MyriadPro-Regular'" font-size="8.4164">   R:</tspan><tspan x="11.623" y="131.294" font-family="'MyriadPro-Regular'" font-size="8.4164" letter-spacing="11">	</tspan><tspan x="25.25" y="131.294" font-family="'MyriadPro-Regular'" font-size="8.4164">  &quot;You have found Brimstone Powder has this many vertical reactions :&quot;,</tspan><tspan x="0" y="141.394" font-family="'MyriadPro-Regular'" font-size="8.4164">   R:</tspan><tspan x="11.623" y="141.394" font-family="'MyriadPro-Regular'" font-size="8.4164" letter-spacing="11">	</tspan><tspan x="25.25" y="141.394" font-family="'MyriadPro-Regular'" font-size="8.4164">  &quot;You have found Aqua Forte has this many vertical reactions :&quot;,</tspan><tspan x="0" y="151.494" font-family="'MyriadPro-Regular'" font-size="8.4164">   R:</tspan><tspan x="11.623" y="151.494" font-family="'MyriadPro-Regular'" font-size="8.4164" letter-spacing="11">	</tspan><tspan x="25.25" y="151.494" font-family="'MyriadPro-Regular'" font-size="8.4164">  &quot;You have found Quicksilver has this many vertical reactions :&quot;,</tspan><tspan x="0" y="161.593" font-family="'MyriadPro-Regular'" font-size="8.4164">   R:</tspan><tspan x="11.623" y="161.593" font-family="'MyriadPro-Regular'" font-size="8.4164" letter-spacing="11">	</tspan><tspan x="25.25" y="161.593" font-family="'MyriadPro-Regular'" font-size="8.4164">  &quot;You have found Lead Dust has this many vertical reactions :&quot;,</tspan><tspan x="0" y="171.693" font-family="'MyriadPro-Regular'" font-size="8.4164">   R:</tspan><tspan x="11.623" y="171.693" font-family="'MyriadPro-Regular'" font-size="8.4164" letter-spacing="11">	</tspan><tspan x="25.25" y="171.693" font-family="'MyriadPro-Regular'" font-size="8.4164">  &quot;You have found Phosphoric Salt has this many vertical reactions :&quot;,</tspan><tspan x="0" y="181.792" font-family="'MyriadPro-Regular'" font-size="8.4164">   R:</tspan><tspan x="11.623" y="181.792" font-family="'MyriadPro-Regular'" font-size="8.4164" letter-spacing="11">	</tspan><tspan x="25.25" y="181.792" font-family="'MyriadPro-Regular'" font-size="8.4164">  &quot;You have found Nitre has has this many vertical reactions :&quot;</tspan></text>
<text transform="matrix(1 0 0 1 435.1357 201.9834)" font-family="'MyriadPro-Regular'" font-size="16">Exhaustible Reactions</text>
<text transform="matrix(1 0 0 1 678.377 23.1382)" font-family="'MyriadPro-Regular'" font-size="16">On Your Turn, Either:</text>
<text transform="matrix(1 0 0 1 678.377 35.3613)"><tspan x="0" y="0" font-family="'MyriadPro-Regular'" font-size="7.5715">Mix 2 Ingredients for 3 Gold</tspan><tspan x="0" y="9.086" font-family="'MyriadPro-Regular'" font-size="7.5715">Mix 3 Ingredients for 2 Gold</tspan><tspan x="0" y="18.171" font-family="'MyriadPro-Regular'" font-size="7.5715">Mix 4 ingredients for 1 Gold</tspan><tspan x="0" y="27.257" font-family="'MyriadPro-Regular'" font-size="7.5715">Mix 5 ingredients for 2 Gold</tspan><tspan x="0" y="36.343" font-family="'MyriadPro-Regular'" font-size="7.5715">Mix 6 Ingredients for 3 Gold</tspan><tspan x="0" y="45.429" font-family="'MyriadPro-Regular'" font-size="7.5715">Re-roll as many of your dice as you want for1Gold</tspan></text>
</svg>
