<svg xmlns="http://www.w3.org/2000/svg" viewBox="0 0 512 512" style="height: 512px; width: 512px;"><defs><filter id="shadow-5" height="300%" width="300%" x="-100%" y="-100%"><feFlood flood-color="rgba(255, 255, 255, 1)" result="flood"></feFlood><feComposite in="flood" in2="SourceGraphic" operator="atop" result="composite"></feComposite><feGaussianBlur in="composite" stdDeviation="15" result="blur"></feGaussianBlur><feOffset dx="0" dy="0" result="offset"></feOffset><feComposite in="SourceGraphic" in2="offset" operator="over"></feComposite></filter></defs><g class="" transform="translate(0,0)" style=""><path d="M74.5 36A38.5 38.5 0 0 0 36 74.5v363A38.5 38.5 0 0 0 74.5 476h363a38.5 38.5 0 0 0 38.5-38.5v-363A38.5 38.5 0 0 0 437.5 36h-363zm48.97 36.03A50 50 0 0 1 172 122a50 50 0 0 1-100 0 50 50 0 0 1 51.47-49.97zm268 0A50 50 0 0 1 440 122a50 50 0 0 1-100 0 50 50 0 0 1 51.47-49.97zM122 206a50 50 0 0 1 0 100 50 50 0 0 1 0-100zm268 0a50 50 0 0 1 0 100 50 50 0 0 1 0-100zM123.47 340.03A50 50 0 0 1 172 390a50 50 0 0 1-100 0 50 50 0 0 1 51.47-49.97zm268 0A50 50 0 0 1 440 390a50 50 0 0 1-100 0 50 50 0 0 1 51.47-49.97z" fill="#000000" fill-opacity="1" stroke="#020100" stroke-opacity="1" stroke-width="7" transform="translate(51.2, 51.2) scale(0.8, 0.8) rotate(0, 256, 256) skewX(0) skewY(0)"></path></g></svg>