<svg version="1.1" xmlns="http://www.w3.org/2000/svg" xmlns:xlink="http://www.w3.org/1999/xlink" x="0px" y="0px"
	 viewBox="0 0 313.7 355.3" style="enable-background:new 0 0 313.7 355.3;" xml:space="preserve">
<g>
	<path fill="#FFFFFF" d="M156.9,349.3c-23.1,0-46.2-5.4-66.9-15.6c-20.7-10.2-39-25.3-53-43.7C8.6,252.9-1,203.8,11.4,158.7
		c12.3-45.1,45.6-82.4,88.9-99.9l3.8-1.5V24.8H87.2V6h139.2v18.8h-16.8v32.4l3.8,1.5c43.2,17.5,76.5,54.8,89.1,99.9
		c12.3,45,2.8,94.1-25.6,131.3c-14,18.4-32.4,33.5-53,43.7C203.1,343.9,179.9,349.3,156.9,349.3z"/>
	<path d="M220.4,12v6.8h-4.8h-12v12v22.4v8.1l7.5,3c20.5,8.3,39.1,21.4,53.9,38c14.7,16.6,25.7,36.6,31.6,57.9
		c5.8,21.3,6.7,44.1,2.5,65.9c-4.2,21.8-13.6,42.6-27,60.2c-13.5,17.6-31.1,32.1-50.9,42c-19.9,9.8-42.1,15-64.2,15
		s-44.4-5.2-64.2-15c-19.9-9.8-37.5-24.3-50.9-42c-13.4-17.6-22.8-38.3-27-60.1c-4.2-21.7-3.4-44.5,2.5-65.9
		c5.8-21.3,16.7-41.4,31.4-57.9c14.7-16.6,33.4-29.7,53.9-38l7.5-3v-8.1V30.8v-12H98h-4.8V12H220.4 M232.4,0H81.2v30.8H98v22.4
		C52.7,71.5,18.5,110,5.6,157.1c-12.9,47.2-3.1,97.7,26.6,136.5c29.7,38.9,75.8,61.7,124.7,61.7s95-22.8,124.7-61.7
		c29.7-38.9,39.5-89.4,26.6-136.5c-13.1-47.1-47.3-85.6-92.6-103.9V30.8h16.8V0L232.4,0z"/>
</g>
<path d="M130.5,124l-71.8,59.8l71.8,59.8v-31.1c4.1-0.2,75.1-2.5,124.5,40.7c-19.8-60.9-81.8-87.3-124.5-98.1V124z"/>
</svg>
